<svg height="125" width="200" xmlns="http://www.w3.org/2000/svg"><path d="m109.57 9.5312c-1.9412.04727-3.4885.53843-4.3125 1.5312-.71106.85678-2.7937 2.1723-4.625 2.9375-1.8313.76516-3.3125 1.8156-3.3125 2.3125 0 .49687-7.2292 1.2056-16.062 1.5938-14.146.62168-17.352 1.0953-26.812 4-3.8968 1.1964-7.6144 2.1062-10.281 2.5625-.53338.09127-1.0263.16574-1.4688.21875-.44249.05301-.81855.11312-1.1562.125-.3377.01188-.62474.000894-.84375-.03125-2.4836-.36451-3.5805.16451-6.125 3.0625-1.7008 1.9371-4.7955 4.4392-6.9062 5.5625-4.7091 2.5061-8.3438 5.5607-8.3438 7 0 .59244 1.9125 2.2694 4.25 3.75l4.25 2.6875-3.125.84375c-3.1083.81237-6.7052 3.8125-4.5625 3.8125.59092 0 2.4089 1.9125 4.0312 4.25 7.7587 11.179 23.521 24.75 28.75 24.75.76494 0 1.4062.38401 1.4062.84375s1.6264 2.9347 3.625 5.5c3.8001 4.8776 5.375 5.7508 5.375 3.0312 0-1.1646.59901-1.4385 2.1562-1.0312.57881.15136 1.1329.20172 1.6562.1875.17446-.005.33271-.009.5-.0313 2.0075-.26946 3.4998-1.8116 4-4.3125l.5625-2.875 11.312-.625c3.1092-.17589 6.282-.44825 8.875-.71875 1.2965-.13525 2.4423-.27183 3.375-.40625.93274-.13442 1.65-.25774 2.0625-.375 2.2572-.64166 3.9191-.38382 6.7187 1.0625.32015.16539.6309.30103.9375.4375 2.1462.9553 3.9639 1.2116 5.7812.8125.17239-.03786.37135-.08849.5625-.15625s.38539-.15405.59375-.25c6.2509-2.8784 19.906-18.051 19.906-22.562 0-.29267-1.5864-.53125-3.5312-.53125h-3.5625l2.5625-3.7188c1.3948-2.0527 2.5312-4.258 2.5312-4.875 0-1.9559 3.2302-4.9706 6.0312-6.0312.21546-.08159.44772-.13037.65625-.1875.41706-.11426.81833-.1875 1.1875-.1875 1.6304 0 2.788.54287 3.0938.875.54709.59438 4.53 4.1693 9.4375 8.5 8.2199 7.2537 9.039 7.7186 10.25 6.0625.72267-.9883 1.2431-2.2044 1.5938-3.5938.0701-.27788.13244-.55231.1875-.84375.55064-2.9144.36729-6.4971-.625-10.312-1.3463-5.1766-1.3583-6.2805 0-10.406 1.2457-3.7839 1.3385-5.771.4375-11.031-.6052-3.5331-1.338-6.6817-1.625-6.9688-.28704-.28704-3.8313 2.159-7.875 5.4375-7.1647 5.8088-11.211 8.6894-14.375 9.4375-.35155.08312-.69836.1557-1.0312.1875-1.9973.1908-3.713-.53063-5.8125-1.9062l-2.8438-1.875 3.1562-.8125c1.7319-.44879 3.1562-1.3334 3.1562-1.9688 0-.63538-2.1772-3.2423-4.8438-5.8125-5.5277-5.328-15.083-9.0793-20.906-8.9375z" fill="#fff" transform="translate(0 21.599327)"/><g transform="translate(-8.480629 21.599327)"><path d="m168.83 17.542c3.2116 6.6995 1.0885 14.747-.71502 20.704 1.7716 5.6252 3.3701 12.721 1.1984 18.38-3.158 3.8073-8.026-3.4254-11.491-6.116-4.359-3.0025-8.2655-9.8908-13.949-7.5548-5.7973 2.4652-6.2545 8.3291-9.5776 13.066-3.1337 4.5736-3.9754 9.9752-8.9402 13.605-9.26 6.737-20.57 10.018-31.994 10.538-10.659.274-21.997.47-32.486-.801-8.285-1.41-13.876-9.256-19.519-14.705-3.993-3.952-8.733-9.089-10.76-14.248 8.7583-5.2545 9.6006-.61617 14.089 4.5251-2.2539-2.9539-4.6506-5.5854-7.1432-8.2098-4.7436-3.5764-11.505-6.59-4.5948-10.152 2.7915-1.3777 8.5943-8.0151 7.8683.53939.6593 6.2751 1.9975 12.538 8.7765 12.96 6.6797-.2958 8.2041-8.1528 8.2974-12.03-.11803-4.2618-3.8652-8.6321-5.3879-11.669 4.9252-2.0308 11.77-4.1818 16.896-5.6884 9.9741-2.2067 20.285-1.6907 30.436-2.0469 5.5452-.13073 11.728-.24041 17.195.22497 6.8433.40879 9.5843 1.3516 13.76 4.5446 5.6241 3.2144 8.574 7.9237 15.741 9.0381 6.8917-3.4017 11.706-7.9796 17.743-11.962 1.0657-.88115 3.4604-2.5925 4.558-2.9425z" fill="#cdcdcd"/><path d="m167.41 21.123c-7.1454 4.5607-9.8052 13.623-21.331 13.802-8.1221.12658-16.235-13.48-27.779-12.48-15.136-.03015-31.28-.58236-47.062 1.7812-7.7635 1.3244-11.484 4.0788-16.874 4.3709 5.6043 6.3701 8.9135 20.481.23929 22.923-2.3427-.92079-11.657 2.2448-13.877-9.6892-.76593-2.0557-.74953-4.535-1.3614-5.8591-1.7522 1.7921-6.0689 3.0574-7.092 5.0743 1.9486 2.3928 4.1119 2.4356 6.3084 4.5466 1.1998 1.6842 2.5987 3.267 3.9045 4.8125 3.8666 4.6262 4.5798 5.7594 4.4982 7.0006-1.296.44935-3.3851-1.5939-5.638-4.7392-1.4919-2.609-5.7272-3.7119-8.7022-2.2461 5.9415 8.5077 14.353 17.139 22.241 22.938 6.9755 4.88 19.212 3.1333 29.729 2.9614 18.778-.81912 29.493.132 40.814-10.92 5.5651-5.72 8.8088-13.559 13.71-20.165 4.0765-5.4944 11.239-5.2711 16.416-.41512 4.9314 4.6247 6.064 7.1033 11.475 10.339 3.6003-7.1681-1.4041-8.6762-2.7872-14.451.9217-5.8185 6.2116-13.578 3.1704-19.584z" fill="#fff"/></g><g transform="translate(-54.02702 95.56099)"><path d="m88.399-12.648c-3.3088-3.4025-5.7972-6.4052-5.5297-6.6727s3.4451 2.5164 7.0614 6.1864 6.1046 6.6727 5.5297 6.6727c-.57493 0-3.7526-2.7839-7.0614-6.1864z"/><path d="m133.91-29.694c-1.901-2.3009-.72604-3.3335-1.76-5.5651-.20667-.44609-2.7828 1.0655-4.8632 2.2553-2.3542 1.3463-3.7572 2.1178-3.218 3.0778.52762.93944 1.2614.67901 3.3429-.35686 1.1957-.59508 3.533-1.7525 3.7389-1.3832.24375.43702-1.8607 1.4985-3.2342 2.2444-2.0233 1.0987-3.2987 1.2266-3.0186 2.1722.36577 1.2348 1.119.64349 3.4431.65713 2.1681.01272 3.6126-.12135 3.6099.24766-.003.47722-1.1573.55088-3.7695.76255-1.6862.13663-2.8843.22479-3.1759 1.141-.36132 1.135.12362 1.4327 2.5871 1.9657 3.439.74409 3.1994 1.6494-.37915.80908-4.3354-1.018-4.2299.33346.37993 3.0384 3.7022 2.1723 3.8188 2.4875 5.3623.25758.87227-1.2602 1.9743-4.2694 1.8562-6.8933-.0839-1.8637.1244-3.1882-.90175-4.4302h.00004zm-12.577 8.5687c3.1154-2.3654 3.6153-6.2562.22707-9.459 2.1799-1.8319 5.6855-4.9727 11.447-6.6627 1.1399-.33435.42182 4.5027 2.5839 7.1415 1.8859 2.3017.69081 8.6512-.30857 10.822-.6737 1.4634-1.2501 2.8179-3.4977 4.8022-3.114-1.3313-9.6321-4.8065-10.452-6.6439z"/><path d="m107.64-18.863c4.3811-4.0603 8.1914-14.834 6.5498-19.476-.59156-1.6728-.19759-2.6218.40225-1.8775 4.6631 5.786-3.1641 23.663-8.0719 23.756-.98459.01866-.61425-.79467 1.1198-2.4018z"/><path d="m140.77-23.882c.61288-1.931.20693-5.6532-.85519-7.2684-1.3572-2.0639-1.155-3.7432.34175-2.2995 2.315 2.233 2.6587 10.092.88117 12.505-1.3295 1.8042-.96068-1.0685-.36773-2.9367z"/><path d="m202.74-28.288c-3.7565-3.253-4.4249-4.9895-1.6479-3.2581 3.4948 2.1789 7.7477 6.0127 6.25 6.008-.825-.003-2.8146-1.2197-4.6021-2.7499z"/><path d="m206.16-30.644c-3.5119-1.8549-5.7533-3.8173-4.2117-3.8173.9762 0 9.3969 4.9664 9.3969 5.5422 0 .83485-1.459.24326-5.1852-1.7249z"/><path d="m80.983-34.156c-.95302-.95302-.77256-3.3061.25353-3.3061 1.2268 0 2.2116 2.8173 1.2028 3.4408-.44926.27766-1.1046.21707-1.4563-.13464z"/><path d="m193.84-37.462c.33992-.55 4.0853-.6912 6.2853-.6912 2.412 0 4.0134.1991 3.8256.6912-.23057.60406-2.7138.98695-4.9138.98695-2.412 0-5.5698-.38394-5.1971-.98695z"/><path d="m202.34-41.135c0-.91134 9.0974-4.4516 9.7534-3.7956.52063.52064-7.2024 4.506-8.7136 4.506-.57191 0-1.0398-.279-1.0398-.71036z"/><path d="m201.32-43.804c2.3166-2.2795 9.0085-7.0082 9.6126-6.404.30273.30273-1.5701 2.1696-4.1619 4.1486-4.7479 3.6253-7.7673 4.535-5.4507 2.2555z"/><path d="m109.56 31.125c-1.9412.04727-3.4573.53843-4.2812 1.5312-.71106.85678-2.7937 2.1723-4.625 2.9375-1.8313.76516-3.3438 1.8156-3.3438 2.3125 0 .49687-7.2292 1.2056-16.062 1.5938-14.146.62168-17.32 1.0953-26.781 4-6.2349 1.9143-12.029 3.1322-13.781 2.875-2.4836-.36451-3.5493.16451-6.0938 3.0625-1.7008 1.9371-5.1895 3.8839-7.1961 5.184-2.4358 1.5781-4.9251 3.728-6.7862 4.3262-1.4903.47895-1.3157 1.2954-1.3494 3.1406-.01081.59234 1.963 2.2124 4.3005 3.693l4.25 2.6875-3.125.8125c-3.1083.81237-6.6739 3.8125-4.5312 3.8125.59092 0 2.3776 1.9125 4 4.25 7.7587 11.179 21.602 24.262 28.781 24.75.76318.0518 1.375.38401 1.375.84375s1.6264 2.9347 3.625 5.5c3.8001 4.8776 5.375 5.7508 5.375 3.0312 0-1.1646.59901-1.4385 2.1562-1.0312 3.087.80726 5.4893-.82168 6.1562-4.1562l.59375-2.875 11.281-.625c6.2184-.35178 12.662-1.031 14.312-1.5 2.2572-.64166 3.9191-.38382 6.7188 1.0625 2.5612 1.3231 4.6731 1.7062 6.75 1.25 5.5164-1.2116 21.031-18.156 21.031-22.969 0-.29267-1.5864-.53125-3.5312-.53125h-3.5312l2.5312-3.7188c1.3948-2.0527 2.5312-4.258 2.5312-4.875 0-2.4073 4.9216-6.4062 7.875-6.4062 1.6304 0 2.8193.54287 3.125.875.54709.59438 4.53 4.1693 9.4375 8.5 8.2199 7.2537 9.0078 7.7498 10.219 6.0938 2.3125-3.1626 2.7439-8.6454 1.1562-14.75-1.3463-5.1766-1.327-6.3117.0312-10.438 1.2457-3.7839 1.3073-5.771.40625-11.031-.6052-3.5331-1.338-6.6505-1.625-6.9375-.28704-.28704-3.8313 2.159-7.875 5.4375-12.737 10.327-15.62 11.356-21.219 7.6875l-2.8125-1.8438 3.125-.84375c1.7319-.44879 3.1562-1.3334 3.1562-1.9688 0-.63538-2.1772-3.2423-4.8438-5.8125-5.5277-5.328-15.083-9.0793-20.906-8.9375h.00005zm2.9072 2.0287c-2.2162.9946-4.0752 1.4808-8.5404 5.0402-1.3523-.10911-2.327-.07187-3.9293-.03948.0273-.77941 5.5797-2.8021 8.031-5.3618 1.8008-.15747 2.9423-.13741 4.4387.36106zm2.1761.63147c1.0262.19835 1.6418.38959 2.3706.72165-1.5125.82054-3.8994 2.4823-4.9913 4.6526-1.5865-.32577-3.2263-.53237-5.6092-.76289 2.7851-2.0028 4.6599-3.2323 8.23-4.6114zm3.9947 1.4948c1.3034.40458 3.7725 1.4023 4.9455 2.3514-2.1028.43184-4.1698 1.7318-5.545 2.8435-.99878-.30208-2.1717-.7868-3.9611-1.1192.546-1.6133 2.7662-3.0634 4.5606-4.0757zm6.3447 3.2502c2.3191 1.2374 3.1754 2.0694 4.0782 3.0729-1.7278.72649-3.8103 1.4137-5.264 2.1433-1.7879-1.0066-2.8609-1.6821-4.0919-2.5572 1.0481-1.0814 4.1246-2.3608 5.2776-2.6591zm34.827 1.8136c.0469-.0082.0772-.01653.0937 0 1.5045 1.5046 1.5431 11.067.0625 15.594-1.4456 4.4195-1.4779 5.2784-.15625 7.8125 1.8206 3.4907 1.944 11.359.21875 13.719-1.1545 1.5789-2.1147.99074-10.531-6.3125-5.1017-4.4269-10.119-8.0625-11.156-8.0625-3.9526 0-6.8078 1.9854-8.9062 6.1875-1.1895 2.3821-3.7496 7.0125-5.6875 10.312-1.9379 3.3-3.7554 6.7677-4.0625 7.6875-.92578 2.773-10.604 8.5002-18.469 10.938-6.5444 2.0281-9.8182 2.3159-28.406 2.5625-24.937.33083-24.545.46825-36.875-12.438-9.6063-10.055-14.149-16.148-12.406-16.688 5.837-1.8061 6.5781-1.6174 10.188 2.6875 1.9592 2.3367 3.7816 4.2702 3.7924 3.6422.048-1.764-9.258-11.482-12.368-13.484-3.8332-2.4677-3.7909-3.8899.9375-6.4062 1.784-.9494 3.8064-2.2065 4.5-2.7812.9867-.81763 1.273.11555 1.3125 4.25.12087 12.661 11.245 17.708 16.469 7.4688 2.6386-5.1721 2.473-9.2045-.59375-14.438l-2.561-4.375 3.812-1.063c5.4516-1.5139 5.9314-1.3752 8.3125 1.9688 2.4965 3.506 3.4968 3.2348 4.375-1.1562 1.4163-7.0814 4.4054-7.6036 7.625-1.3438 3.0055 5.8436 4.5272 7.106 6.5 5.4688.825-.68469 1.5-2.0182 1.5-2.9688 0-.95058.48994-3.1429 1.0938-4.875.87643-2.5141 1.6549-3.1562 3.875-3.1562 2.1732 0 3.0796.67668 4.0938 3.125 1.4214 3.4316 5.6525 8.875 6.9062 8.875.72448 0 1.2758-1.2138 4.25-9.25.85753-2.317 1.62-2.75 4.7188-2.75 3.2523 0 3.7895.39691 4.8438 3.3125.65571 1.8134 1.8235 4.1341 2.5938 5.1875 1.8705 2.5581 4.1677.73847 5.0625-4.0312.35745-1.9054.84386-3.4688 1.0625-3.4688 1.0107 0 8.3504 4.6806 11.281 7.1875 4.878 4.1723 9.092 6.0813 11.906 5.375 1.3584-.34092 6.5025-3.8259 11.438-7.7188 4.6266-3.6496 8.6716-6.4712 9.375-6.5938zm-29.668 2.6254c.97744.75361 2.2862 2.1438 2.8136 2.5815-1.0364.63132-3.1519 1.1351-4.7622 1.6024-.76583-.62267-1.5101-1.0777-2.717-2.263 1.0344-.75017 3.094-1.4721 4.6656-1.921zm-90.515 5.187c1.7061.0048 3.447 1.0694 5.0625 3.1875 4.2764 5.6067 4.9627 8.575 3.0938 13.469-.90333 2.3654-2.484 4.7688-3.5 5.3125-3.1203 1.6699-5.7282 1.0899-7.9375-1.7188l-2.094-2.688 3.25-1.063c6.4952-2.1211 5.7644-12.562-.875-12.562-2.5686 0-2.5789-.04813-.8125-2 1.1795-1.3033 2.4855-1.9412 3.8125-1.9375zm-5.344 8.094c.22162-.0409.6606-.02786.96756.03125.9625.18536 1.6212.71522 1.6786 1.9274.03836.80903-.90244 1.5122-1.8649 1.6976-1.2278.23646-1.75-.30635-1.75-1.8125 0-1.1296.3039-1.721.96875-1.8438zm96.198 25.61c.17164.10776-.0498.63556-.69756 1.6713-2.0099.15248-3.7878.17713-5.6875-.03125.59751-1.0405.76063-1.7703.93643-1.8226 1.7339-.01171 3.7346.06989 5.4486.18247zm-7.2693 3.3715c1.8475.30531 3.4087.30301 5.228.23729-.69501.97112-1.4388 2.0064-2.2812 3.0312-1.5749-.0472-3.1639-.13341-4.625-.59375.54718-.87643 1.1496-1.7428 1.6782-2.6748zm-2.96 4.518c1.3147.56411 2.7131.67466 4.1875.75-1.0456 1.17-2.1238 2.3106-3.2188 3.4375-1.7574.04486-2.9386-.49204-3.7812-1.5.99044-.75016 1.9597-1.6314 2.8125-2.6875zm-5.0938 4.1875c1.3144 1.224 2.6217 1.7034 3.9688 2.0625-1.0792 1.3773-2.4267 2.3063-3.7812 3.0625-1.7085-.56737-4.0784-.89108-4.7188-2.5.69332-.31871 1.3088-.6106 1.6875-.875.66574-.46479 1.6828-1.0432 2.8438-1.75zm-7.6562 4c.98465 1.319 3.8554 1.9692 5.8125 2.5312-1.4856.97345-2.8604 1.7601-3.4062 1.7188-2.0472-.15498-6.2728-1.5508-5.8125-2.2812.17289-.51305 1.6969-1.2273 3.4062-1.9688zm-44.425 6.4164c.9938.97796 1.7109 1.0298 2.2688-.26016.58937-1.3628.95535-1.2814.96875.0937.0084.86662-1.0724 2.5575-2.375 3.7812l-2.3438 2.2188-2.6875-3.2712c-1.5481-1.8843-2.7669-3.6129-2.0726-3.6248 1.2036-.0206 1.3539-.13682 2.8726 1.5057 2.8319 3.0626 4.6595 2.6183 2.0504.33723-2.307-2.0169-1.5505-2.0407-.63162-2.0406 1.3223.00011 1.3132.63357 1.95 1.2602zm6.6438-1.2602c1.0536 0 1.2357.70014.6875 2.75-.40449 1.5125-1.5314 2.9071-2.5 3.0938-1.5615.30086-1.6174.0742-.46875-2 .71248-1.2866 1.2106-2.6812 1.0938-3.0938-.11685-.4125.41006-.75 1.1875-.75z" transform="translate(54.02702 -95.56099)"/><path d="m228-14.212c.41261-2.0625.7502-4.65.7502-5.75s-.33759-3.6875-.7502-5.75c-.44642-2.2315-.36492-3.75.20127-3.75.52331 0 1.2539 2.199 1.6236 4.8867.76111 5.5339-.23782 14.113-1.6433 14.113-.54341 0-.61909-1.563-.18156-3.75z"/><path d="m220.35-12.153c.006-.44496.60085-2.834 1.322-5.309 1.2812-4.3973 1.3356-7.4257.24242-13.5-.50794-2.8224-.45215-2.8851.94244-1.0589 2.5222 3.3028 1.3628 18.279-1.5547 20.082-.52963.32734-.9581.2311-.95215-.21386z"/><path d="m222.53-45.841c.30658-4.2384-.45523-7.3807-1.7088-10.022-.95777-2.0184-1.5298-4.0319-1.1226-4.2885.48336-.30457 2.6714 3.0776 3.2636 5.9142 1.2066 5.7804 1.6463 12.975-.18591 13.469-.71558.19308-.52762-1.1816-.24617-5.0726z"/><path d="m228.51-49.875c.1293-2.0984-.97777-6.6569-2.3005-9.5484-2.948-6.4442-1.6982-6.7536 1.042-.77885 2.9113 6.3477 3.6679 14.279 2.2083 13.741-.71064-.26184-1.0792-1.313-.94981-3.4136z"/><path d="m92.188-57.781c-.41812.0167-.80767.05115-1.0938.125-.14304.03693-.28046.0682-.375.15625-.04727.04402-.08177.1139-.09375.1875s-.0025.15779.03125.21875c.2022.36531.63765.49833 1.1562.5625.5186.06417 1.1496.04416 1.875 0 1.0756-.06548 1.6347.30524 2.1562.78125.24261.22142.59104.67633.96875 1.0625.18885.19308.40237.37851.625.5s.46094.17489.71875.125c.05699-.01103.1201-.04836.15625-.09375s.05441-.07785.0625-.125c.01618-.09431-.0074-.20745-.03125-.3125-.04766-.2101-.14402-.44359-.28125-.71875-.27446-.55032-.69541-1.1814-1.0938-1.5312-.97152-.85332-1.5719-.85671-2.625-.90625-.38593-.01816-1.3187-.06471-2.1562-.03125z"/><g fill="#fff" stroke="#000" transform="translate(62.351062 -85.961663)"><path d="m21.692 3.693c0 1.7332-1.479 3.1382-3.3034 3.1382s-3.3034-1.405-3.3034-3.1382 1.479-3.1382 3.3034-3.1382 3.3034 1.405 3.3034 3.1382z"/><path d="m11.121 17.512c0 2.7974-2.2678 5.0652-5.0652 5.0652s-5.0652-2.2678-5.0652-5.0652 2.2678-5.0652 5.0652-5.0652 5.0652 2.2678 5.0652 5.0652z" stroke-width="1.125"/><path d="m19.49 23.954c0 1.0642-.86274 1.927-1.927 1.927-1.0642 0-1.927-.86274-1.927-1.927 0-1.0642.86274-1.927 1.927-1.927 1.0642 0 1.927.86274 1.927 1.927z" stroke-width="1.125"/></g><path d="m158.66-39.407c.63271-.89656.39099-2.751-.67113-3.5124-1.3572-.97288-1.155-1.7645.34175-1.0839 2.315 1.0526 2.8202 4.6362.88117 5.8944-1.324.85906-1.1447-.45786-.55179-1.2981z"/><path d="m160.69-40.198c-1.5047-.81182-1.3126-1.6401.30136-1.3263 2.9208.56794 2.4314 5.1636.47731 5.8944-1.6851.63027-.87652-.42951-.16504-1.4705.84731-1.2397.60338-2.4411-.61363-3.0977z"/><path d="m158.02-32.571c.49888-.97738.50672-2.5033-.43424-3.4262-1.1922-1.1693-.94394-1.9348.46291-1.0839 2.2746 1.3757 1.9721 4.4343.59846 5.8944-1.0814 1.1495-1.1797-.30175-.62713-1.3843z"/><path d="m165.12-28.754c-1.1333-1.2896-.636-2.3003.74722-1.4115 2.1394 1.3747 1.7734 6.1183.0239 5.9599-1.4321-.12972 1.0955-2.4244-.77112-4.5483z"/><path d="m167.58-26.827c-1.7324-.26725-1.445-1.5247.1895-1.3468 2.958.32194 2.9592 4.7402 1.2549 6.087-.94832.74939-.95356-.5447-.67019-1.1969.35739-.82256 1.6193-2.1864-.77422-3.5433z"/><path d="m164.54-19.558c.91705-.60263 1.766-1.5198 1.0745-2.6419-.77349-1.255-.19661-2.5871.95606-1.0464 1.5924 2.1285-.30418 4.5837-2.2202 5.1731-1.5085.46406-.82603-.81738.18969-1.4849z"/><path d="m146.33-13.551c1.0714-.84393.77678-2.679-.56585-3.5826-1.2444-.83744-.89177-1.6943.53475-1.0839 2.338 1.0003 3.0132 4.9345.68817 5.8944-1.4588.60227-1.4649-.59155-.65707-1.2279z"/><path d="m148.73-15.184c-1.463-.88487-1.23-1.9247.30136-1.3263 2.7102 1.0592 2.4314 5.1636.47731 5.8944-1.6851.63027-1.2615-.76984-.39313-1.2424.87639-.47694 1.0771-2.4411-.38554-3.3258z"/><path d="m146.53-8.8563c.78176-.23546.80812-1.7206-.22369-2.1278-1.2092-.4772-.99248-1.8788.46291-1.0839 2.3292 1.2721 1.589 4.0336.12473 4.2978-1.5125.27284-1.3413-.79165-.36395-1.086z"/><path d="m117.61-8.4643c.63271-.89656.39099-2.751-.67113-3.5124-1.3572-.97288-1.155-1.7645.34175-1.0839 2.315 1.0526 2.8202 4.6362.88117 5.8944-1.324.85906-1.1447-.45786-.55179-1.2981z"/><path d="m119.33-9.2601c-1.538-.74684-1.3814-1.5826.24447-1.3379 2.9424.44274 2.6496 5.0551.72851 5.8687-1.6567.70164-.89406-.3917-.22767-1.4621.79362-1.2748.49862-2.4646-.74531-3.0686z"/><path d="m116.6-2.279c.69575-.84857 1.0287-2.3377.30605-3.44-.91553-1.3965-.50982-2.0916.68332-.96036 1.9291 1.8289.98157 4.7528-.67172 5.8865-1.3016.89258-1.0883-.54627-.31765-1.4862z"/></g></svg>