<svg xmlns="http://www.w3.org/2000/svg" xmlns:svg="http://www.w3.org/2000/svg" id="svg2" width="200" height="125" version="1.1"><title id="title2876">Archer Fish</title><defs id="defs4"><linearGradient id="linearGradient4050"><stop style="stop-color:#000;stop-opacity:0" id="stop4052" offset="0"/><stop style="stop-color:#000;stop-opacity:.21487603" id="stop4054" offset="1"/></linearGradient></defs><metadata id="metadata7"/><g id="layer3" style="display:inline" transform="translate(0,21.599327)"><path style="fill:#fff;fill-opacity:1;display:inline" id="path3891" d="m 109.574,9.53125 c -1.94116,0.04727 -3.48853,0.538433 -4.3125,1.53125 -0.71106,0.856776 -2.79372,2.172341 -4.62497,2.9375 -1.831278,0.765159 -3.312488,1.815631 -3.312488,2.3125 0,0.496869 -7.22921,1.205557 -16.0625,1.59375 -14.14624,0.621679 -17.35169,1.095318 -26.8125,4 -3.896833,1.196414 -7.614366,2.106165 -10.28125,2.5625 -0.533377,0.09127 -1.026264,0.165737 -1.46875,0.21875 -0.442486,0.05301 -0.818553,0.113123 -1.15625,0.125 -0.337697,0.01188 -0.624739,8.94e-4 -0.84375,-0.03125 -2.48356,-0.36451 -3.58052,0.164507 -6.125,3.0625 -1.70081,1.937115 -4.795536,4.439205 -6.90625,5.5625 -4.70906,2.5061 -8.34375,5.560741 -8.34375,7 0,0.59244 1.9125,2.26939 4.25,3.75 l 4.25,2.6875 -3.125,0.84375 c -3.108341,0.81237 -6.705166,3.8125 -4.5625,3.8125 0.590922,0 2.408871,1.9125 4.03125,4.25 7.75869,11.17861 23.52095,24.75 28.75,24.75 0.76494,0 1.40625,0.38401 1.40625,0.84375 0,0.45974 1.62642,2.93474 3.625,5.5 3.80013,4.87764 5.375,5.75079 5.375,3.03125 0,-1.16461 0.59901,-1.43848 2.15625,-1.03125 0.578807,0.15136 1.132861,0.20172 1.65625,0.1875 0.174463,-0.005 0.332709,-0.009 0.5,-0.0313 2.007494,-0.26946 3.499817,-1.811572 4,-4.3125 l 0.5625,-2.875 11.3125,-0.625 c 3.109205,-0.17589 6.282001,-0.448249 8.875,-0.71875 1.296499,-0.135251 2.442263,-0.271832 3.375,-0.40625 0.932737,-0.134418 1.65,-0.257738 2.0625,-0.375 2.257198,-0.64166 3.919068,-0.38382 6.718708,1.0625 0.32015,0.165392 0.6309,0.301028 0.9375,0.4375 2.1462,0.955304 3.96393,1.211649 5.78125,0.8125 0.17239,-0.03786 0.37135,-0.08849 0.5625,-0.15625 0.19115,-0.06776 0.38539,-0.154052 0.59375,-0.25 6.25091,-2.8784 19.90625,-18.050825 19.90625,-22.56245 0,-0.29267 -1.58642,-0.53125 -3.53125,-0.53125 l -3.5625,0 2.5625,-3.71875 c 1.39483,-2.05268 2.53125,-4.25799 2.53125,-4.875 0,-1.955923 3.23024,-4.970619 6.03125,-6.03125 0.21546,-0.08159 0.44772,-0.130371 0.65625,-0.1875 0.41706,-0.114257 0.81833,-0.1875 1.1875,-0.1875 1.63043,0 2.78803,0.542873 3.09375,0.875 0.54709,0.594381 4.52997,4.16933 9.4375,8.5 8.21992,7.25371 9.03905,7.71857 10.25,6.0625 0.72267,-0.988303 1.24306,-2.204355 1.59375,-3.59375 0.0701,-0.277879 0.13244,-0.55231 0.1875,-0.84375 0.55064,-2.914402 0.36729,-6.4971 -0.625,-10.3125 -1.34629,-5.176574 -1.35826,-6.280471 0,-10.40625 1.24573,-3.783936 1.33854,-5.77104 0.4375,-11.03125 -0.6052,-3.533137 -1.33796,-6.681707 -1.625,-6.96875 -0.28704,-0.287042 -3.83128,2.159022 -7.875,5.4375 -7.16473,5.80885 -11.21102,8.689406 -14.375,9.4375 -0.35155,0.08312 -0.69836,0.1557 -1.03125,0.1875 -1.99731,0.1908 -3.71303,-0.530627 -5.8125,-1.90625 l -2.84375,-1.875 3.15625,-0.8125 c 1.73193,-0.448788 3.15625,-1.333365 3.15625,-1.96875 0,-0.635385 -2.1772,-3.242284 -4.84375,-5.8125 -5.52774,-5.328036 -15.08278,-9.079319 -20.90625,-8.9375 z"/></g><g id="layer2" style="display:inline" transform="translate(-8.4806292,21.599327)"><path style="font-size:medium;font-style:normal;font-variant:normal;font-weight:400;font-stretch:normal;text-indent:0;text-align:start;text-decoration:none;line-height:normal;letter-spacing:normal;word-spacing:normal;text-transform:none;direction:ltr;block-progression:tb;writing-mode:lr-tb;text-anchor:start;color:#000;fill:#cdcdcd;fill-opacity:1;stroke:none;stroke-width:1.125;marker:none;visibility:visible;display:inline;overflow:visible;enable-background:accumulate;font-family:Sans;-inkscape-font-specification:Sans" id="path3260" d="m 168.82564,17.542164 c 3.21158,6.699466 1.08851,14.747119 -0.71502,20.704112 1.77165,5.625195 3.37012,12.72088 1.19835,18.379735 -3.15803,3.807273 -8.02599,-3.425356 -11.49059,-6.11601 -4.35903,-3.002548 -8.26549,-9.890789 -13.94884,-7.554756 -5.79726,2.465156 -6.25454,8.329095 -9.57756,13.06563 -3.13368,4.573629 -3.97543,9.975165 -8.9402,13.604921 C 116.09326,76.363112 104.7821,79.643643 93.356244,80.16417 82.6971,80.438402 71.359129,80.633685 60.869844,79.362766 52.58499,77.952882 46.993655,70.107194 41.350713,64.657698 37.357668,60.705829 32.618048,55.568994 30.591491,50.409996 c 8.758262,-5.254471 9.600568,-0.616173 14.089212,4.525129 -2.253885,-2.953873 -4.650619,-5.585358 -7.143168,-8.209755 -4.743639,-3.576408 -11.504606,-6.589961 -4.594802,-10.151632 2.791526,-1.377699 8.594312,-8.015117 7.868322,0.539388 0.659296,6.27507 1.997515,12.537782 8.776523,12.960295 6.679652,-0.295802 8.204137,-8.152753 8.297363,-12.030184 -0.118034,-4.261794 -3.865207,-8.632115 -5.387931,-11.668854 4.925183,-2.030838 11.769577,-4.181826 16.895713,-5.688352 9.974076,-2.206717 20.285109,-1.690674 30.436261,-2.046924 5.545186,-0.130728 11.728096,-0.240411 17.195026,0.224968 6.8433,0.408788 9.58434,1.351566 13.7597,4.544551 5.62409,3.21444 8.57405,7.923672 15.74054,9.038076 6.89167,-3.40167 11.70585,-7.979643 17.74338,-11.962056 1.06567,-0.881146 3.46045,-2.592471 4.55801,-2.942482 z"/><path style="font-size:medium;font-style:normal;font-variant:normal;font-weight:400;font-stretch:normal;text-indent:0;text-align:start;text-decoration:none;line-height:normal;letter-spacing:normal;word-spacing:normal;text-transform:none;direction:ltr;block-progression:tb;writing-mode:lr-tb;text-anchor:start;color:#000;fill:#fff;fill-opacity:1;stroke:none;stroke-width:1.125;marker:none;visibility:visible;display:inline;overflow:visible;enable-background:accumulate;font-family:Sans;-inkscape-font-specification:Sans" id="path3260-9" d="m 167.40596,21.123224 c -7.14542,4.560715 -9.80519,13.622537 -21.33143,13.802176 -8.12206,0.126583 -16.23494,-13.480156 -27.77944,-12.479662 -15.13605,-0.03015 -31.280117,-0.582365 -47.062455,1.78125 -7.763474,1.324398 -11.483944,4.078832 -16.873791,4.370881 5.604306,6.370066 8.913506,20.480532 0.239289,22.923307 -2.342722,-0.920787 -11.656653,2.244843 -13.877288,-9.689216 -0.765931,-2.055704 -0.749527,-4.534969 -1.361434,-5.859091 -1.752219,1.792074 -6.068908,3.057381 -7.091974,5.074289 1.948582,2.392764 4.111904,2.435617 6.308381,4.546592 1.199843,1.684182 2.598708,3.266958 3.904474,4.8125 3.86662,4.626179 4.579796,5.759421 4.498224,7.000644 -1.295983,0.449352 -3.385062,-1.593871 -5.638031,-4.739247 -1.4919,-2.608962 -5.727186,-3.711861 -8.702167,-2.246055 5.941488,8.507732 14.352768,17.138916 22.240553,22.9375 6.975479,4.879992 19.212402,3.133259 29.728705,2.961355 18.777884,-0.819116 29.492704,0.131997 40.813724,-10.920092 5.56509,-5.719985 8.80876,-13.558934 13.71038,-20.165493 4.07648,-5.494407 11.23852,-5.271069 16.41649,-0.415117 4.93141,4.62472 6.06397,7.10334 11.47466,10.339235 3.60026,-7.168081 -1.40413,-8.67618 -2.78725,-14.451452 0.9217,-5.81854 6.21165,-13.578007 3.17038,-19.584304 z"/></g><g id="layer1" transform="translate(-54.02702,95.56099)" style="display:inline"><path style="fill:#000" id="path3164" d="m 88.39871,-12.648033 c -3.308837,-3.4025 -5.797198,-6.40523 -5.529696,-6.67273 0.267503,-0.2675 3.445126,2.51636 7.061386,6.18636 3.61626,3.6700103 6.10462,6.6727403 5.52969,6.6727403 -0.57493,0 -3.75255,-2.78387 -7.06138,-6.1863703 z"/><path id="path3156" style="fill:#000" d="m 133.91084,-29.693674 c -1.90104,-2.300911 -0.72604,-3.333469 -1.75995,-5.565148 -0.20667,-0.446094 -2.78277,1.065487 -4.86324,2.255265 -2.35418,1.346311 -3.75722,2.117815 -3.21805,3.077819 0.52762,0.939438 1.26143,0.679008 3.34288,-0.35686 1.19574,-0.595078 3.53298,-1.752487 3.73893,-1.383231 0.24375,0.437022 -1.86067,1.49853 -3.23419,2.244405 -2.02329,1.098725 -3.29874,1.226561 -3.01863,2.172224 0.36577,1.234817 1.11897,0.643493 3.44312,0.65713 2.16811,0.01272 3.61256,-0.121347 3.60992,0.247657 -0.003,0.477223 -1.15731,0.550875 -3.76953,0.762546 -1.68618,0.136633 -2.88429,0.22479 -3.17594,1.140977 -0.36132,1.135041 0.12362,1.432687 2.58706,1.9657 3.439,0.744093 3.19945,1.64937 -0.37915,0.809082 -4.3354,-1.017993 -4.22994,0.333461 0.37993,3.03841 3.70216,2.172332 3.81883,2.487544 5.36231,0.257582 0.87227,-1.260214 1.97433,-4.269391 1.85624,-6.893318 -0.0839,-1.863678 0.1244,-3.188237 -0.90175,-4.43024 l 4e-5,0 z m -12.57694,8.568738 c 3.11544,-2.365354 3.6153,-6.256213 0.22707,-9.459046 2.17988,-1.831878 5.68551,-4.972694 11.44745,-6.662714 1.13993,-0.334351 0.42182,4.502701 2.58392,7.141459 1.88589,2.301665 0.69081,8.651225 -0.30857,10.822018 -0.6737,1.463372 -1.25013,2.817854 -3.49768,4.802166 -3.11402,-1.331302 -9.6321,-4.806521 -10.45219,-6.643883 z"/><path style="fill:#000" id="path3154" d="m 107.64272,-18.863443 c 4.3811,-4.06026 8.19144,-14.834374 6.54983,-19.476467 -0.59156,-1.672783 -0.19759,-2.621831 0.40225,-1.877543 4.66307,5.785987 -3.16412,23.662801 -8.07193,23.75579 -0.98459,0.01866 -0.61425,-0.79467 1.11985,-2.40178 z"/><path style="fill:#000" id="path3150" d="m 140.76712,-23.882427 c 0.61288,-1.930982 0.20693,-5.653232 -0.85519,-7.26838 -1.35722,-2.063884 -1.15495,-3.743189 0.34175,-2.299491 2.31496,2.232974 2.65866,10.092449 0.88117,12.504534 -1.3295,1.804155 -0.96068,-1.068534 -0.36773,-2.936663 z"/><path style="fill:#000" id="path3146" d="m 202.74108,-28.288165 c -3.75652,-3.253048 -4.42489,-4.989504 -1.64787,-3.258118 3.49484,2.178923 7.74774,6.01269 6.25,6.00802 -0.825,-0.003 -2.81463,-1.219702 -4.60213,-2.749902 z"/><path style="fill:#000" id="path3144" d="m 206.15801,-30.644376 c -3.51191,-1.854921 -5.75334,-3.817287 -4.21167,-3.817287 0.9762,0 9.39687,4.9664 9.39687,5.54215 0,0.83485 -1.45897,0.243257 -5.1852,-1.724863 z"/><path style="fill:#000" id="path3140" d="m 80.982726,-34.155516 c -0.953015,-0.953015 -0.772565,-3.306147 0.253531,-3.306147 1.22681,0 2.211647,2.817284 1.202795,3.440788 -0.449265,0.277662 -1.104612,0.217073 -1.456326,-0.134641 z"/><path style="fill:#000" id="path3136" d="m 193.84321,-37.461663 c 0.33992,-0.55 4.08531,-0.691201 6.28531,-0.691201 2.41203,0 4.01343,0.1991 3.82559,0.691201 -0.23057,0.604055 -2.71377,0.986947 -4.91377,0.986947 -2.41203,0 -5.56981,-0.383941 -5.19713,-0.986947 z"/><path style="fill:#000" id="path3134" d="m 202.34321,-41.135058 c 0,-0.911336 9.0974,-4.451631 9.75344,-3.795594 0.52063,0.520635 -7.20242,4.505957 -8.7136,4.505957 -0.57191,0 -1.03984,-0.278998 -1.03984,-0.710363 z"/><path style="fill:#000" id="path3132" d="m 201.31724,-43.80431 c 2.31658,-2.279513 9.00848,-7.008173 9.61262,-6.404041 0.30273,0.30273 -1.57014,2.169579 -4.16192,4.148553 -4.74793,3.625317 -7.76729,4.535001 -5.4507,2.255488 z"/><path style="fill:#000" id="path3110" d="m 109.5625,31.125 c -1.94116,0.04727 -3.45728,0.538433 -4.28125,1.53125 -0.71106,0.856776 -2.79372,2.172341 -4.625,2.9375 -1.83129,0.765159 -3.34375,1.815631 -3.34375,2.3125 0,0.496869 -7.22921,1.205557 -16.0625,1.59375 -14.14624,0.621679 -17.32044,1.095318 -26.78125,4 -6.23493,1.914263 -12.02916,3.132151 -13.78125,2.875 -2.48356,-0.36451 -3.54927,0.164507 -6.09375,3.0625 -1.70081,1.937115 -5.189464,3.883917 -7.196114,5.184017 -2.435804,1.578148 -4.925092,3.728047 -6.786223,4.326158 -1.490333,0.478947 -1.315746,1.295353 -1.34941,3.140572 -0.01081,0.592341 1.962997,2.212393 4.300497,3.693003 l 4.25,2.6875 -3.125,0.8125 c -3.108341,0.81237 -6.673916,3.8125 -4.53125,3.8125 0.590922,0 2.377621,1.9125 4,4.25 7.75869,11.17861 21.601625,24.26235 28.78125,24.75 0.763182,0.0518 1.375,0.38401 1.375,0.84375 0,0.45974 1.62642,2.93474 3.625,5.5 3.80013,4.87764 5.375,5.75079 5.375,3.03125 0,-1.16461 0.59901,-1.43848 2.15625,-1.03125 3.08697,0.80726 5.48934,-0.82168 6.15625,-4.15625 l 0.59375,-2.875 11.28125,-0.625 c 6.21841,-0.35178 12.6625,-1.03095 14.3125,-1.5 2.2572,-0.64166 3.9191,-0.38382 6.71875,1.0625 2.5612,1.32314 4.67306,1.70617 6.75,1.25 5.51639,-1.21161 21.03125,-18.15635 21.03125,-22.96875 0,-0.29267 -1.58642,-0.53125 -3.53125,-0.53125 l -3.53125,0 2.53125,-3.71875 c 1.39483,-2.05268 2.53125,-4.25799 2.53125,-4.875 0,-2.40729 4.92161,-6.40625 7.875,-6.40625 1.63043,0 2.81928,0.542873 3.125,0.875 0.54709,0.594381 4.52997,4.16933 9.4375,8.5 8.21992,7.25371 9.0078,7.74982 10.21875,6.09375 2.31253,-3.16257 2.74392,-8.64536 1.15625,-14.75 -1.34629,-5.176574 -1.32701,-6.311721 0.0312,-10.4375 1.24573,-3.783936 1.30729,-5.77104 0.40625,-11.03125 -0.6052,-3.533137 -1.33796,-6.650457 -1.625,-6.9375 -0.28704,-0.287042 -3.83128,2.159022 -7.875,5.4375 -12.73729,10.326844 -15.62017,11.355828 -21.21875,7.6875 l -2.8125,-1.84375 3.125,-0.84375 c 1.73193,-0.448788 3.15625,-1.333365 3.15625,-1.96875 0,-0.635385 -2.1772,-3.242284 -4.84375,-5.8125 -5.52774,-5.328036 -15.08278,-9.079319 -20.90625,-8.9375 l 5e-5,0 z m 2.90724,2.028739 c -2.21618,0.994604 -4.07519,1.480786 -8.5404,5.040169 -1.35227,-0.109112 -2.32705,-0.07187 -3.92933,-0.03948 0.0273,-0.779406 5.57966,-2.802099 8.03101,-5.361754 1.80082,-0.15747 2.94229,-0.137407 4.43872,0.361065 z m 2.17614,0.631472 c 1.02615,0.19835 1.64177,0.389593 2.37058,0.721646 -1.5125,0.820545 -3.89939,2.482277 -4.99131,4.652597 -1.58647,-0.325774 -3.22634,-0.532368 -5.60922,-0.762886 2.78511,-2.002802 4.65988,-3.232272 8.22995,-4.611357 z m 3.99472,1.49477 c 1.30341,0.404583 3.77251,1.40234 4.9455,2.351404 -2.10276,0.431839 -4.16979,1.731792 -5.54503,2.843456 -0.99878,-0.302084 -2.17173,-0.786798 -3.9611,-1.119153 0.546,-1.613276 2.76622,-3.063446 4.56063,-4.075707 z m 6.34469,3.250201 c 2.31911,1.237433 3.17543,2.069358 4.07821,3.07294 -1.72781,0.726488 -3.81028,1.413679 -5.26395,2.143295 -1.78794,-1.006553 -2.86088,-1.682137 -4.09186,-2.55716 1.04814,-1.081408 4.12461,-2.360836 5.2776,-2.659075 z m 34.82721,1.813568 c 0.0469,-0.0082 0.0772,-0.01653 0.0937,0 1.50452,1.504562 1.54308,11.067135 0.0625,15.59375 -1.44556,4.419543 -1.47794,5.278368 -0.15625,7.8125 1.82058,3.49067 1.94399,11.35936 0.21875,13.71875 -1.15448,1.57886 -2.11474,0.99074 -10.53125,-6.3125 -5.10174,-4.42691 -10.11859,-8.0625 -11.15625,-8.0625 -3.95265,0 -6.80785,1.98536 -8.90625,6.1875 -1.18954,2.38212 -3.74961,7.0125 -5.6875,10.3125 -1.9379,3.3 -3.75541,6.76769 -4.0625,7.6875 -0.92578,2.77297 -10.60401,8.50019 -18.46875,10.9375 -6.54436,2.02812 -9.81821,2.3159 -28.40625,2.5625 -24.93748,0.33083 -24.54497,0.46825 -36.875,-12.4375 -9.606266,-10.05476 -14.148851,-16.1483 -12.40625,-16.6875 5.836956,-1.80609 6.578087,-1.61741 10.1875,2.6875 1.95918,2.3367 3.781579,4.270247 3.792379,3.642227 C 37.541399,76.220007 28.234766,66.502026 25.125,64.5 c -3.833168,-2.467743 -3.790864,-3.889853 0.9375,-6.40625 1.783953,-0.949405 3.806385,-2.20648 4.5,-2.78125 0.986695,-0.817633 1.27303,0.11555 1.3125,4.25 0.120872,12.661091 11.24532,17.70759 16.46875,7.46875 2.63862,-5.172131 2.47298,-9.204507 -0.59375,-14.4375 L 45.1875,48.21875 49,47.15625 c 5.45164,-1.513864 5.93137,-1.375245 8.3125,1.96875 2.49651,3.506023 3.49679,3.234814 4.375,-1.15625 1.41627,-7.081354 4.40542,-7.60364 7.625,-1.34375 3.00547,5.84358 4.5272,7.106026 6.5,5.46875 0.825,-0.684689 1.5,-2.018168 1.5,-2.96875 0,-0.950583 0.48994,-3.142927 1.09375,-4.875 0.87643,-2.514134 1.65494,-3.15625 3.875,-3.15625 2.17323,0 3.07962,0.676675 4.09375,3.125 1.4214,3.431564 5.65252,8.875 6.90625,8.875 0.72448,0 1.27584,-1.21383 4.25,-9.25 0.85753,-2.317024 1.62001,-2.75 4.71875,-2.75 3.25232,0 3.78946,0.396911 4.84375,3.3125 0.65571,1.813353 1.8235,4.134113 2.59375,5.1875 1.87053,2.558103 4.16769,0.738473 5.0625,-4.03125 0.35745,-1.905404 0.84386,-3.46875 1.0625,-3.46875 1.01069,0 8.35036,4.680621 11.28125,7.1875 4.878,4.1723 9.09197,6.081328 11.90625,5.375 1.35835,-0.340925 6.50246,-3.825881 11.4375,-7.71875 4.6266,-3.649564 8.67165,-6.47124 9.375,-6.59375 z m -29.66776,2.625379 c 0.97744,0.753606 2.28623,2.143832 2.81357,2.581484 -1.03641,0.631316 -3.15189,1.135065 -4.76215,1.602442 -0.76583,-0.62267 -1.51011,-1.077734 -2.71697,-2.262964 1.03445,-0.750173 3.09396,-1.472051 4.66555,-1.920962 z M 39.625,48.15625 c 1.706124,0.0048 3.446961,1.069417 5.0625,3.1875 4.27639,5.606681 4.96268,8.575 3.09375,13.46875 -0.90333,2.36537 -2.48404,4.76878 -3.5,5.3125 -3.12031,1.66994 -5.72824,1.08986 -7.9375,-1.71875 L 34.25,65.71875 37.5,64.65625 c 6.49522,-2.121135 5.76437,-12.5625 -0.875,-12.5625 -2.5686,0 -2.57892,-0.04813 -0.8125,-2 1.179465,-1.303295 2.485515,-1.941209 3.8125,-1.9375 z M 34.28125,56.25 c 0.221618,-0.0409 0.660598,-0.02786 0.96756,0.03125 0.9625,0.18536 1.621152,0.715217 1.678629,1.927439 0.03836,0.809027 -0.902439,1.512201 -1.864939,1.697561 -1.22785,0.236462 -1.75,-0.306351 -1.75,-1.8125 0,-1.129612 0.303896,-1.721048 0.96875,-1.84375 z m 96.19756,25.609909 c 0.17164,0.107755 -0.0498,0.635564 -0.69756,1.671341 -2.00992,0.152484 -3.78777,0.177128 -5.6875,-0.03125 0.59751,-1.040453 0.76063,-1.770251 0.93643,-1.822561 1.73386,-0.01171 3.73459,0.06989 5.44863,0.18247 z m -7.26933,3.371547 c 1.84747,0.305306 3.40867,0.303007 5.22802,0.237294 -0.69501,0.971123 -1.43879,2.00639 -2.28125,3.03125 -1.57488,-0.0472 -3.16391,-0.13341 -4.625,-0.59375 0.54718,-0.876429 1.14965,-1.74276 1.67823,-2.674794 z M 120.25,89.75 c 1.31466,0.564114 2.71313,0.674657 4.1875,0.75 -1.04565,1.169963 -2.1238,2.310568 -3.21875,3.4375 -1.75736,0.04486 -2.93862,-0.492041 -3.78125,-1.5 0.99044,-0.750156 1.95967,-1.631372 2.8125,-2.6875 z m -5.09375,4.1875 c 1.31441,1.22396 2.62166,1.703403 3.96875,2.0625 -1.07917,1.377265 -2.42673,2.306292 -3.78125,3.0625 -1.70851,-0.567371 -4.07837,-0.891077 -4.71875,-2.5 0.69332,-0.318711 1.30879,-0.610604 1.6875,-0.875 0.66574,-0.46479 1.68278,-1.04318 2.84375,-1.75 z m -7.65625,4 c 0.98465,1.318952 3.85545,1.969205 5.8125,2.53125 -1.48559,0.97345 -2.86036,1.76008 -3.40625,1.71875 -2.04717,-0.15498 -6.27275,-1.55077 -5.8125,-2.28125 0.17289,-0.513049 1.69691,-1.227287 3.40625,-1.96875 z m -44.425024,6.41641 c 0.993805,0.97796 1.710898,1.02984 2.268774,-0.26016 0.589366,-1.36282 0.95535,-1.28142 0.96875,0.0937 0.0084,0.86662 -1.07236,2.55748 -2.375,3.78125 l -2.34375,2.21875 -2.6875,-3.27119 c -1.548109,-1.88434 -2.766944,-3.61294 -2.072624,-3.62483 1.203605,-0.0206 1.353874,-0.13682 2.872648,1.50568 2.831898,3.0626 4.659531,2.6183 2.05035,0.33723 -2.307016,-2.0169 -1.550483,-2.04071 -0.631624,-2.04064 1.322268,1.1e-4 1.313179,0.63357 1.949976,1.26021 z m 6.643774,-1.26016 c 1.05364,0 1.23569,0.70014 0.6875,2.75 -0.40449,1.5125 -1.53142,2.90714 -2.5,3.09375 -1.56149,0.30086 -1.61738,0.0742 -0.46875,-2 0.71248,-1.28661 1.2106,-2.68125 1.09375,-3.09375 -0.11685,-0.4125 0.41006,-0.75 1.1875,-0.75 z" transform="translate(54.02702,-95.56099)"/><path style="fill:#000" id="path3108" d="m 228.00279,-14.211663 c 0.41261,-2.0625 0.7502,-4.65 0.7502,-5.75 0,-1.1 -0.33759,-3.6875 -0.7502,-5.75 -0.44642,-2.23148 -0.36492,-3.75 0.20127,-3.75 0.52331,0 1.25392,2.19903 1.62357,4.88673 0.76111,5.53394 -0.23782,14.11327 -1.64328,14.11327 -0.54341,0 -0.61909,-1.56298 -0.18156,-3.75 z"/><path style="fill:#000" id="path3106" d="m 220.35403,-12.152643 c 0.006,-0.44496 0.60085,-2.83402 1.32198,-5.30902 1.28122,-4.39728 1.3356,-7.42569 0.24242,-13.5 -0.50794,-2.822413 -0.45215,-2.885094 0.94244,-1.05887 2.52216,3.30277 1.36275,18.27868 -1.55469,20.08175 -0.52963,0.32734 -0.9581,0.2311 -0.95215,-0.21386 z"/><path style="fill:#000" id="path3104" d="m 222.53165,-45.841036 c 0.30658,-4.238429 -0.45523,-7.380673 -1.70885,-10.022396 -0.95777,-2.01836 -1.52983,-4.031942 -1.12263,-4.288526 0.48336,-0.304572 2.67143,3.077582 3.26356,5.914208 1.20663,5.780444 1.64627,12.974914 -0.18591,13.46928 -0.71558,0.193081 -0.52762,-1.181558 -0.24617,-5.072566 z"/><path style="fill:#000" id="path3102" d="m 228.50694,-49.875312 c 0.1293,-2.098433 -0.97777,-6.656909 -2.30053,-9.548386 -2.94801,-6.44417 -1.6982,-6.753575 1.04203,-0.778854 2.9113,6.347702 3.66791,14.278687 2.20831,13.740889 -0.71064,-0.261839 -1.07925,-1.312954 -0.94981,-3.413649 z"/><path style="fill:#000" id="path4355" d="m 92.1875,-57.78125 c -0.418117,0.0167 -0.807673,0.05115 -1.09375,0.125 -0.143038,0.03693 -0.280457,0.0682 -0.375,0.15625 -0.04727,0.04402 -0.08177,0.113899 -0.09375,0.1875 -0.01198,0.0736 -0.0025,0.157788 0.03125,0.21875 0.202196,0.36531 0.63765,0.498328 1.15625,0.5625 0.5186,0.06417 1.149554,0.04416 1.875,0 1.075552,-0.06548 1.634667,0.305237 2.15625,0.78125 0.242612,0.221415 0.591043,0.676332 0.96875,1.0625 0.188853,0.193084 0.402374,0.378508 0.625,0.5 0.222626,0.121492 0.460936,0.174891 0.71875,0.125 0.05699,-0.01103 0.120105,-0.04836 0.15625,-0.09375 0.03615,-0.04539 0.05441,-0.07785 0.0625,-0.125 0.01618,-0.09431 -0.0074,-0.207448 -0.03125,-0.3125 -0.04766,-0.210103 -0.144018,-0.443589 -0.28125,-0.71875 -0.274463,-0.550323 -0.695406,-1.181375 -1.09375,-1.53125 -0.971524,-0.853316 -1.571925,-0.856708 -2.625,-0.90625 -0.385928,-0.01816 -1.318691,-0.06471 -2.15625,-0.03125 z"/><path style="fill:#fff;fill-opacity:1;stroke:#000;stroke-opacity:1" id="path3014" d="m 21.692346,3.6929636 c 0,1.7331981 -1.478984,3.1382327 -3.303403,3.1382327 -1.824419,0 -3.303403,-1.4050346 -3.303403,-3.1382327 0,-1.7331981 1.478984,-3.13823271 3.303403,-3.13823271 1.824419,0 3.303403,1.40503461 3.303403,3.13823271 z" transform="translate(62.351062,-85.961663)"/><path style="fill:#fff;fill-opacity:1;stroke:#000;stroke-width:1.125;stroke-miterlimit:4;stroke-opacity:1;stroke-dasharray:none" id="path3790" d="m 11.121456,17.512199 c 0,2.797443 -2.267775,5.065218 -5.0652173,5.065218 -2.7974424,0 -5.06521754,-2.267775 -5.06521754,-5.065218 0,-2.797442 2.26777514,-5.065217 5.06521754,-5.065217 2.7974423,0 5.0652173,2.267775 5.0652173,5.065217 z" transform="translate(62.351062,-85.961663)"/><path style="fill:#fff;fill-opacity:1;stroke:#000;stroke-width:1.125;stroke-miterlimit:4;stroke-opacity:1;stroke-dasharray:none" id="path3794" d="m 19.490076,23.953835 c 0,1.064244 -0.86274,1.926985 -1.926985,1.926985 -1.064244,0 -1.926985,-0.862741 -1.926985,-1.926985 0,-1.064245 0.862741,-1.926985 1.926985,-1.926985 1.064245,0 1.926985,0.86274 1.926985,1.926985 z" transform="translate(62.351062,-85.961663)"/><path style="fill:#000;display:inline" id="path3150-4" d="m 158.65842,-39.40685 c 0.63271,-0.896564 0.39099,-2.751039 -0.67113,-3.512391 -1.35722,-0.972878 -1.15495,-1.764473 0.34175,-1.083939 2.31496,1.052585 2.82021,4.636241 0.88117,5.894416 -1.32395,0.859065 -1.14473,-0.457865 -0.55179,-1.298086 z"/><path style="fill:#000;display:inline" id="path3150-4-0" d="m 160.69337,-40.197693 c -1.50472,-0.811817 -1.31256,-1.640087 0.30136,-1.32626 2.92077,0.567943 2.43137,5.163562 0.47731,5.894416 -1.68514,0.630272 -0.87652,-0.429507 -0.16504,-1.470496 0.84731,-1.239727 0.60338,-2.441067 -0.61363,-3.09766 z"/><path style="fill:#000;display:inline" id="path3150-4-8" d="m 158.01776,-32.571279 c 0.49888,-0.977376 0.50672,-2.503287 -0.43424,-3.426186 -1.19218,-1.169295 -0.94394,-1.934817 0.46291,-1.083939 2.27457,1.375679 1.97209,4.434307 0.59846,5.894416 -1.08141,1.149507 -1.17969,-0.301749 -0.62713,-1.384291 z"/><path style="fill:#000;display:inline" id="path3150-4-02" d="m 165.11954,-28.753862 c -1.13334,-1.289589 -0.636,-2.300329 0.74722,-1.411531 2.13942,1.374708 1.77336,6.118326 0.0239,5.959868 -1.43214,-0.129717 1.09546,-2.424432 -0.77112,-4.548337 z"/><path style="fill:#000;display:inline" id="path3150-4-0-1" d="m 167.58296,-26.826773 c -1.73235,-0.267253 -1.44499,-1.524694 0.1895,-1.346801 2.95801,0.321939 2.95922,4.740197 1.25491,6.087001 -0.94832,0.749393 -0.95356,-0.544703 -0.67019,-1.196882 0.35739,-0.822556 1.61928,-2.186436 -0.77422,-3.543318 z"/><path style="fill:#000;display:inline" id="path3150-4-8-5" d="m 164.54161,-19.558126 c 0.91705,-0.602632 1.76602,-1.519823 1.0745,-2.641856 -0.77349,-1.25504 -0.19661,-2.587089 0.95606,-1.046403 1.59242,2.128462 -0.30418,4.583664 -2.22025,5.173113 -1.50847,0.464064 -0.82603,-0.817378 0.18969,-1.484854 z"/><path style="fill:#000;display:inline" id="path3150-4-3" d="m 146.32834,-13.551338 c 1.07135,-0.843927 0.77678,-2.67901 -0.56585,-3.582573 -1.24439,-0.837445 -0.89177,-1.694291 0.53475,-1.083939 2.33801,1.000344 3.01321,4.934515 0.68817,5.894416 -1.45881,0.602271 -1.4649,-0.59155 -0.65707,-1.227904 z"/><path style="fill:#000;display:inline" id="path3150-4-0-0" d="m 148.73176,-15.184387 c -1.46296,-0.88487 -1.22999,-1.924748 0.30136,-1.32626 2.71022,1.059218 2.43137,5.163562 0.47731,5.894416 -1.68514,0.6302718 -1.2615,-0.769836 -0.39313,-1.242404 0.87639,-0.476941 1.07711,-2.441067 -0.38554,-3.325752 z"/><path style="fill:#000;display:inline" id="path3150-4-8-9" d="m 146.52989,-8.8563441 c 0.78176,-0.235461 0.80812,-1.7206219 -0.22369,-2.1278149 -1.20921,-0.477197 -0.99248,-1.878781 0.46291,-1.083939 2.32923,1.272086 1.58901,4.0336219 0.12473,4.2977709 -1.5125,0.272845 -1.34128,-0.791651 -0.36395,-1.086017 z"/><path style="fill:#000;display:inline" id="path3150-4-5" d="m 117.61349,-8.4643489 c 0.63271,-0.896564 0.39099,-2.7510391 -0.67113,-3.5123911 -1.35722,-0.972878 -1.15495,-1.764473 0.34175,-1.083939 2.31496,1.052585 2.82021,4.6362411 0.88117,5.8944161 -1.32395,0.859065 -1.14473,-0.457865 -0.55179,-1.298086 z"/><path style="fill:#000;display:inline" id="path3150-4-0-4" d="m 119.33162,-9.2601059 c -1.538,-0.7468401 -1.38138,-1.5825581 0.24447,-1.3379161 2.94235,0.442737 2.64959,5.0550591 0.72851,5.8686661 -1.6567,0.701637 -0.89406,-0.391696 -0.22767,-1.46211 0.79362,-1.274768 0.49862,-2.4646 -0.74531,-3.06864 z"/><path style="fill:#000;display:inline" id="path3150-4-8-1" d="m 116.59913,-2.2790469 c 0.69575,-0.848574 1.02867,-2.337745 0.30605,-3.440006 -0.91553,-1.396544 -0.50982,-2.091559 0.68332,-0.960356 1.92907,1.828903 0.98157,4.752762 -0.67172,5.88651702 -1.30159,0.892579 -1.08826,-0.54627302 -0.31765,-1.48615502 z"/></g></svg>