<svg height="125" width="200" xmlns="http://www.w3.org/2000/svg"><path d="m109.574 9.53125c-1.94116.04727-3.48853.538433-4.3125 1.53125-.71106.856776-2.79372 2.172341-4.62497 2.9375-1.831278.765159-3.312488 1.815631-3.312488 2.3125s-7.22921 1.205557-16.0625 1.59375c-14.14624.621679-17.35169 1.095318-26.8125 4-3.896833 1.196414-7.614366 2.106165-10.28125 2.5625-.533377.09127-1.026264.165737-1.46875.21875-.442486.05301-.818553.113123-1.15625.125-.337697.01188-.624739.000894-.84375-.03125-2.48356-.36451-3.58052.164507-6.125 3.0625-1.70081 1.937115-4.795536 4.439205-6.90625 5.5625-4.70906 2.5061-8.34375 5.560741-8.34375 7 0 .59244 1.9125 2.26939 4.25 3.75l4.25 2.6875-3.125.84375c-3.108341.81237-6.705166 3.8125-4.5625 3.8125.590922 0 2.408871 1.9125 4.03125 4.25 7.75869 11.17861 23.52095 24.75 28.75 24.75.76494 0 1.40625.38401 1.40625.84375s1.62642 2.93474 3.625 5.5c3.80013 4.87764 5.375 5.75079 5.375 3.03125 0-1.16461.59901-1.43848 2.15625-1.03125.578807.15136 1.132861.20172 1.65625.1875.174463-.005.332709-.009.5-.0313 2.007494-.26946 3.499817-1.811572 4-4.3125l.5625-2.875 11.3125-.625c3.109205-.17589 6.282001-.448249 8.875-.71875 1.296499-.135251 2.442263-.271832 3.375-.40625s1.65-.257738 2.0625-.375c2.257198-.64166 3.919068-.38382 6.718708 1.0625.32015.165392.6309.301028.9375.4375 2.1462.955304 3.96393 1.211649 5.78125.8125.17239-.03786.37135-.08849.5625-.15625s.38539-.154052.59375-.25c6.25091-2.8784 19.90625-18.050825 19.90625-22.56245 0-.29267-1.58642-.53125-3.53125-.53125h-3.5625l2.5625-3.71875c1.39483-2.05268 2.53125-4.25799 2.53125-4.875 0-1.955923 3.23024-4.970619 6.03125-6.03125.21546-.08159.44772-.130371.65625-.1875.41706-.114257.81833-.1875 1.1875-.1875 1.63043 0 2.78803.542873 3.09375.875.54709.594381 4.52997 4.16933 9.4375 8.5 8.21992 7.25371 9.03905 7.71857 10.25 6.0625.72267-.988303 1.24306-2.204355 1.59375-3.59375.0701-.277879.13244-.55231.1875-.84375.55064-2.914402.36729-6.4971-.625-10.3125-1.34629-5.176574-1.35826-6.280471 0-10.40625 1.24573-3.783936 1.33854-5.77104.4375-11.03125-.6052-3.533137-1.33796-6.681707-1.625-6.96875-.28704-.287042-3.83128 2.159022-7.875 5.4375-7.16473 5.80885-11.21102 8.689406-14.375 9.4375-.35155.08312-.69836.1557-1.03125.1875-1.99731.1908-3.71303-.530627-5.8125-1.90625l-2.84375-1.875 3.15625-.8125c1.73193-.448788 3.15625-1.333365 3.15625-1.96875s-2.1772-3.242284-4.84375-5.8125c-5.52774-5.328036-15.08278-9.079319-20.90625-8.9375z" fill="#fff" transform="translate(0 21.599327)"/><g transform="translate(-8.480629 21.599327)"><path d="m168.82564 17.542164c3.21158 6.699466 1.08851 14.747119-.71502 20.704112 1.77165 5.625195 3.37012 12.72088 1.19835 18.379735-3.15803 3.807273-8.02599-3.425356-11.49059-6.11601-4.35903-3.002548-8.26549-9.890789-13.94884-7.554756-5.79726 2.465156-6.25454 8.329095-9.57756 13.06563-3.13368 4.573629-3.97543 9.975165-8.9402 13.604921-9.25852 6.737316-20.56968 10.017847-31.995536 10.538374-10.659144.274232-21.997115.469515-32.4864-.801404-8.284854-1.409884-13.876189-9.255572-19.519131-14.705068-3.993045-3.951869-8.732665-9.088704-10.759222-14.247702 8.758262-5.254471 9.600568-.616173 14.089212 4.525129-2.253885-2.953873-4.650619-5.585358-7.143168-8.209755-4.743639-3.576408-11.504606-6.589961-4.594802-10.151632 2.791526-1.377699 8.594312-8.015117 7.868322.539388.659296 6.27507 1.997515 12.537782 8.776523 12.960295 6.679652-.295802 8.204137-8.152753 8.297363-12.030184-.118034-4.261794-3.865207-8.632115-5.387931-11.668854 4.925183-2.030838 11.769577-4.181826 16.895713-5.688352 9.974076-2.206717 20.285109-1.690674 30.436261-2.046924 5.545186-.130728 11.728096-.240411 17.195026.224968 6.8433.408788 9.58434 1.351566 13.7597 4.544551 5.62409 3.21444 8.57405 7.923672 15.74054 9.038076 6.89167-3.40167 11.70585-7.979643 17.74338-11.962056 1.06567-.881146 3.46045-2.592471 4.55801-2.942482z" fill="#cdcdcd"/><path d="m167.40596 21.123224c-7.14542 4.560715-9.80519 13.622537-21.33143 13.802176-8.12206.126583-16.23494-13.480156-27.77944-12.479662-15.13605-.03015-31.280117-.582365-47.062455 1.78125-7.763474 1.324398-11.483944 4.078832-16.873791 4.370881 5.604306 6.370066 8.913506 20.480532.239289 22.923307-2.342722-.920787-11.656653 2.244843-13.877288-9.689216-.765931-2.055704-.749527-4.534969-1.361434-5.859091-1.752219 1.792074-6.068908 3.057381-7.091974 5.074289 1.948582 2.392764 4.111904 2.435617 6.308381 4.546592 1.199843 1.684182 2.598708 3.266958 3.904474 4.8125 3.86662 4.626179 4.579796 5.759421 4.498224 7.000644-1.295983.449352-3.385062-1.593871-5.638031-4.739247-1.4919-2.608962-5.727186-3.711861-8.702167-2.246055 5.941488 8.507732 14.352768 17.138916 22.240553 22.9375 6.975479 4.879992 19.212402 3.133259 29.728705 2.961355 18.777884-.819116 29.492704.131997 40.813724-10.920092 5.56509-5.719985 8.80876-13.558934 13.71038-20.165493 4.07648-5.494407 11.23852-5.271069 16.41649-.415117 4.93141 4.62472 6.06397 7.10334 11.47466 10.339235 3.60026-7.168081-1.40413-8.67618-2.78725-14.451452.9217-5.81854 6.21165-13.578007 3.17038-19.584304z" fill="#fff"/></g><g transform="translate(-54.02702 95.56099)"><path d="m88.39871-12.648033c-3.308837-3.4025-5.797198-6.40523-5.529696-6.67273.267503-.2675 3.445126 2.51636 7.061386 6.18636 3.61626 3.6700103 6.10462 6.6727403 5.52969 6.6727403s-3.75255-2.78387-7.06138-6.1863703z"/><path d="m133.91084-29.693674c-1.90104-2.300911-.72604-3.333469-1.75995-5.565148-.20667-.446094-2.78277 1.065487-4.86324 2.255265-2.35418 1.346311-3.75722 2.117815-3.21805 3.077819.52762.939438 1.26143.679008 3.34288-.35686 1.19574-.595078 3.53298-1.752487 3.73893-1.383231.24375.437022-1.86067 1.49853-3.23419 2.244405-2.02329 1.098725-3.29874 1.226561-3.01863 2.172224.36577 1.234817 1.11897.643493 3.44312.65713 2.16811.01272 3.61256-.121347 3.60992.247657-.003.477223-1.15731.550875-3.76953.762546-1.68618.136633-2.88429.22479-3.17594 1.140977-.36132 1.135041.12362 1.432687 2.58706 1.9657 3.439.744093 3.19945 1.64937-.37915.809082-4.3354-1.017993-4.22994.333461.37993 3.03841 3.70216 2.172332 3.81883 2.487544 5.36231.257582.87227-1.260214 1.97433-4.269391 1.85624-6.893318-.0839-1.863678.1244-3.188237-.90175-4.43024zm-12.57694 8.568738c3.11544-2.365354 3.6153-6.256213.22707-9.459046 2.17988-1.831878 5.68551-4.972694 11.44745-6.662714 1.13993-.334351.42182 4.502701 2.58392 7.141459 1.88589 2.301665.69081 8.651225-.30857 10.822018-.6737 1.463372-1.25013 2.817854-3.49768 4.802166-3.11402-1.331302-9.6321-4.806521-10.45219-6.643883z"/><path d="m107.64272-18.863443c4.3811-4.06026 8.19144-14.834374 6.54983-19.476467-.59156-1.672783-.19759-2.621831.40225-1.877543 4.66307 5.785987-3.16412 23.662801-8.07193 23.75579-.98459.01866-.61425-.79467 1.11985-2.40178z"/><path d="m140.76712-23.882427c.61288-1.930982.20693-5.653232-.85519-7.26838-1.35722-2.063884-1.15495-3.743189.34175-2.299491 2.31496 2.232974 2.65866 10.092449.88117 12.504534-1.3295 1.804155-.96068-1.068534-.36773-2.936663z"/><path d="m202.74108-28.288165c-3.75652-3.253048-4.42489-4.989504-1.64787-3.258118 3.49484 2.178923 7.74774 6.01269 6.25 6.00802-.825-.003-2.81463-1.219702-4.60213-2.749902z"/><path d="m206.15801-30.644376c-3.51191-1.854921-5.75334-3.817287-4.21167-3.817287.9762 0 9.39687 4.9664 9.39687 5.54215 0 .83485-1.45897.243257-5.1852-1.724863z"/><path d="m80.982726-34.155516c-.953015-.953015-.772565-3.306147.253531-3.306147 1.22681 0 2.211647 2.817284 1.202795 3.440788-.449265.277662-1.104612.217073-1.456326-.134641z"/><path d="m193.84321-37.461663c.33992-.55 4.08531-.691201 6.28531-.691201 2.41203 0 4.01343.1991 3.82559.691201-.23057.604055-2.71377.986947-4.91377.986947-2.41203 0-5.56981-.383941-5.19713-.986947z"/><path d="m202.34321-41.135058c0-.911336 9.0974-4.451631 9.75344-3.795594.52063.520635-7.20242 4.505957-8.7136 4.505957-.57191 0-1.03984-.278998-1.03984-.710363z"/><path d="m201.31724-43.80431c2.31658-2.279513 9.00848-7.008173 9.61262-6.404041.30273.30273-1.57014 2.169579-4.16192 4.148553-4.74793 3.625317-7.76729 4.535001-5.4507 2.255488z"/><path d="m109.5625 31.125c-1.94116.04727-3.45728.538433-4.28125 1.53125-.71106.856776-2.79372 2.172341-4.625 2.9375-1.83129.765159-3.34375 1.815631-3.34375 2.3125s-7.22921 1.205557-16.0625 1.59375c-14.14624.621679-17.32044 1.095318-26.78125 4-6.23493 1.914263-12.02916 3.132151-13.78125 2.875-2.48356-.36451-3.54927.164507-6.09375 3.0625-1.70081 1.937115-5.189464 3.883917-7.196114 5.184017-2.435804 1.578148-4.925092 3.728047-6.786223 4.326158-1.490333.478947-1.315746 1.295353-1.34941 3.140572-.01081.592341 1.962997 2.212393 4.300497 3.693003l4.25 2.6875-3.125.8125c-3.108341.81237-6.673916 3.8125-4.53125 3.8125.590922 0 2.377621 1.9125 4 4.25 7.75869 11.17861 21.601625 24.26235 28.78125 24.75.763182.0518 1.375.38401 1.375.84375s1.62642 2.93474 3.625 5.5c3.80013 4.87764 5.375 5.75079 5.375 3.03125 0-1.16461.59901-1.43848 2.15625-1.03125 3.08697.80726 5.48934-.82168 6.15625-4.15625l.59375-2.875 11.28125-.625c6.21841-.35178 12.6625-1.03095 14.3125-1.5 2.2572-.64166 3.9191-.38382 6.71875 1.0625 2.5612 1.32314 4.67306 1.70617 6.75 1.25 5.51639-1.21161 21.03125-18.15635 21.03125-22.96875 0-.29267-1.58642-.53125-3.53125-.53125h-3.53125l2.53125-3.71875c1.39483-2.05268 2.53125-4.25799 2.53125-4.875 0-2.40729 4.92161-6.40625 7.875-6.40625 1.63043 0 2.81928.542873 3.125.875.54709.594381 4.52997 4.16933 9.4375 8.5 8.21992 7.25371 9.0078 7.74982 10.21875 6.09375 2.31253-3.16257 2.74392-8.64536 1.15625-14.75-1.34629-5.176574-1.32701-6.311721.0312-10.4375 1.24573-3.783936 1.30729-5.77104.40625-11.03125-.6052-3.533137-1.33796-6.650457-1.625-6.9375-.28704-.287042-3.83128 2.159022-7.875 5.4375-12.73729 10.326844-15.62017 11.355828-21.21875 7.6875l-2.8125-1.84375 3.125-.84375c1.73193-.448788 3.15625-1.333365 3.15625-1.96875s-2.1772-3.242284-4.84375-5.8125c-5.52774-5.328036-15.08278-9.079319-20.90625-8.9375zm2.90724 2.028739c-2.21618.994604-4.07519 1.480786-8.5404 5.040169-1.35227-.109112-2.32705-.07187-3.92933-.03948.0273-.779406 5.57966-2.802099 8.03101-5.361754 1.80082-.15747 2.94229-.137407 4.43872.361065zm2.17614.631472c1.02615.19835 1.64177.389593 2.37058.721646-1.5125.820545-3.89939 2.482277-4.99131 4.652597-1.58647-.325774-3.22634-.532368-5.60922-.762886 2.78511-2.002802 4.65988-3.232272 8.22995-4.611357zm3.99472 1.49477c1.30341.404583 3.77251 1.40234 4.9455 2.351404-2.10276.431839-4.16979 1.731792-5.54503 2.843456-.99878-.302084-2.17173-.786798-3.9611-1.119153.546-1.613276 2.76622-3.063446 4.56063-4.075707zm6.34469 3.250201c2.31911 1.237433 3.17543 2.069358 4.07821 3.07294-1.72781.726488-3.81028 1.413679-5.26395 2.143295-1.78794-1.006553-2.86088-1.682137-4.09186-2.55716 1.04814-1.081408 4.12461-2.360836 5.2776-2.659075zm34.82721 1.813568c.0469-.0082.0772-.01653.0937 0 1.50452 1.504562 1.54308 11.067135.0625 15.59375-1.44556 4.419543-1.47794 5.278368-.15625 7.8125 1.82058 3.49067 1.94399 11.35936.21875 13.71875-1.15448 1.57886-2.11474.99074-10.53125-6.3125-5.10174-4.42691-10.11859-8.0625-11.15625-8.0625-3.95265 0-6.80785 1.98536-8.90625 6.1875-1.18954 2.38212-3.74961 7.0125-5.6875 10.3125-1.9379 3.3-3.75541 6.76769-4.0625 7.6875-.92578 2.77297-10.60401 8.50019-18.46875 10.9375-6.54436 2.02812-9.81821 2.3159-28.40625 2.5625-24.93748.33083-24.54497.46825-36.875-12.4375-9.606266-10.05476-14.148851-16.1483-12.40625-16.6875 5.836956-1.80609 6.578087-1.61741 10.1875 2.6875 1.95918 2.3367 3.781579 4.270247 3.792379 3.642227.03032-1.76597-9.276313-11.483951-12.386079-13.485977-3.833168-2.467743-3.790864-3.889853.9375-6.40625 1.783953-.949405 3.806385-2.20648 4.5-2.78125.986695-.817633 1.27303.11555 1.3125 4.25.120872 12.661091 11.24532 17.70759 16.46875 7.46875 2.63862-5.172131 2.47298-9.204507-.59375-14.4375l-2.5625-4.375 3.8125-1.0625c5.45164-1.513864 5.93137-1.375245 8.3125 1.96875 2.49651 3.506023 3.49679 3.234814 4.375-1.15625 1.41627-7.081354 4.40542-7.60364 7.625-1.34375 3.00547 5.84358 4.5272 7.106026 6.5 5.46875.825-.684689 1.5-2.018168 1.5-2.96875 0-.950583.48994-3.142927 1.09375-4.875.87643-2.514134 1.65494-3.15625 3.875-3.15625 2.17323 0 3.07962.676675 4.09375 3.125 1.4214 3.431564 5.65252 8.875 6.90625 8.875.72448 0 1.27584-1.21383 4.25-9.25.85753-2.317024 1.62001-2.75 4.71875-2.75 3.25232 0 3.78946.396911 4.84375 3.3125.65571 1.813353 1.8235 4.134113 2.59375 5.1875 1.87053 2.558103 4.16769.738473 5.0625-4.03125.35745-1.905404.84386-3.46875 1.0625-3.46875 1.01069 0 8.35036 4.680621 11.28125 7.1875 4.878 4.1723 9.09197 6.081328 11.90625 5.375 1.35835-.340925 6.50246-3.825881 11.4375-7.71875 4.6266-3.649564 8.67165-6.47124 9.375-6.59375zm-29.66776 2.625379c.97744.753606 2.28623 2.143832 2.81357 2.581484-1.03641.631316-3.15189 1.135065-4.76215 1.602442-.76583-.62267-1.51011-1.077734-2.71697-2.262964 1.03445-.750173 3.09396-1.472051 4.66555-1.920962zm-90.51974 5.187121c1.706124.0048 3.446961 1.069417 5.0625 3.1875 4.27639 5.606681 4.96268 8.575 3.09375 13.46875-.90333 2.36537-2.48404 4.76878-3.5 5.3125-3.12031 1.66994-5.72824 1.08986-7.9375-1.71875l-2.09375-2.6875 3.25-1.0625c6.49522-2.121135 5.76437-12.5625-.875-12.5625-2.5686 0-2.57892-.04813-.8125-2 1.179465-1.303295 2.485515-1.941209 3.8125-1.9375zm-5.34375 8.09375c.221618-.0409.660598-.02786.96756.03125.9625.18536 1.621152.715217 1.678629 1.927439.03836.809027-.902439 1.512201-1.864939 1.697561-1.22785.236462-1.75-.306351-1.75-1.8125 0-1.129612.303896-1.721048.96875-1.84375zm96.19756 25.609909c.17164.107755-.0498.635564-.69756 1.671341-2.00992.152484-3.78777.177128-5.6875-.03125.59751-1.040453.76063-1.770251.93643-1.822561 1.73386-.01171 3.73459.06989 5.44863.18247zm-7.26933 3.371547c1.84747.305306 3.40867.303007 5.22802.237294-.69501.971123-1.43879 2.00639-2.28125 3.03125-1.57488-.0472-3.16391-.13341-4.625-.59375.54718-.876429 1.14965-1.74276 1.67823-2.674794zm-2.95948 4.518544c1.31466.564114 2.71313.674657 4.1875.75-1.04565 1.169963-2.1238 2.310568-3.21875 3.4375-1.75736.04486-2.93862-.492041-3.78125-1.5.99044-.750156 1.95967-1.631372 2.8125-2.6875zm-5.09375 4.1875c1.31441 1.22396 2.62166 1.703403 3.96875 2.0625-1.07917 1.377265-2.42673 2.306292-3.78125 3.0625-1.70851-.567371-4.07837-.891077-4.71875-2.5.69332-.318711 1.30879-.610604 1.6875-.875.66574-.46479 1.68278-1.04318 2.84375-1.75zm-7.65625 4c.98465 1.318952 3.85545 1.969205 5.8125 2.53125-1.48559.97345-2.86036 1.76008-3.40625 1.71875-2.04717-.15498-6.27275-1.55077-5.8125-2.28125.17289-.513049 1.69691-1.227287 3.40625-1.96875zm-44.425024 6.41641c.993805.97796 1.710898 1.02984 2.268774-.26016.589366-1.36282.95535-1.28142.96875.0937.0084.86662-1.07236 2.55748-2.375 3.78125l-2.34375 2.21875-2.6875-3.27119c-1.548109-1.88434-2.766944-3.61294-2.072624-3.62483 1.203605-.0206 1.353874-.13682 2.872648 1.50568 2.831898 3.0626 4.659531 2.6183 2.05035.33723-2.307016-2.0169-1.550483-2.04071-.631624-2.04064 1.322268.00011 1.313179.63357 1.949976 1.26021zm6.643774-1.26016c1.05364 0 1.23569.70014.6875 2.75-.40449 1.5125-1.53142 2.90714-2.5 3.09375-1.56149.30086-1.61738.0742-.46875-2 .71248-1.28661 1.2106-2.68125 1.09375-3.09375s.41006-.75 1.1875-.75z" transform="translate(54.02702 -95.56099)"/><path d="m228.00279-14.211663c.41261-2.0625.7502-4.65.7502-5.75s-.33759-3.6875-.7502-5.75c-.44642-2.23148-.36492-3.75.20127-3.75.52331 0 1.25392 2.19903 1.62357 4.88673.76111 5.53394-.23782 14.11327-1.64328 14.11327-.54341 0-.61909-1.56298-.18156-3.75z"/><path d="m220.35403-12.152643c.006-.44496.60085-2.83402 1.32198-5.30902 1.28122-4.39728 1.3356-7.42569.24242-13.5-.50794-2.822413-.45215-2.885094.94244-1.05887 2.52216 3.30277 1.36275 18.27868-1.55469 20.08175-.52963.32734-.9581.2311-.95215-.21386z"/><path d="m222.53165-45.841036c.30658-4.238429-.45523-7.380673-1.70885-10.022396-.95777-2.01836-1.52983-4.031942-1.12263-4.288526.48336-.304572 2.67143 3.077582 3.26356 5.914208 1.20663 5.780444 1.64627 12.974914-.18591 13.46928-.71558.193081-.52762-1.181558-.24617-5.072566z"/><path d="m228.50694-49.875312c.1293-2.098433-.97777-6.656909-2.30053-9.548386-2.94801-6.44417-1.6982-6.753575 1.04203-.778854 2.9113 6.347702 3.66791 14.278687 2.20831 13.740889-.71064-.261839-1.07925-1.312954-.94981-3.413649z"/><path d="m92.1875-57.78125c-.418117.0167-.807673.05115-1.09375.125-.143038.03693-.280457.0682-.375.15625-.04727.04402-.08177.113899-.09375.1875-.01198.0736-.0025.157788.03125.21875.202196.36531.63765.498328 1.15625.5625.5186.06417 1.149554.04416 1.875 0 1.075552-.06548 1.634667.305237 2.15625.78125.242612.221415.591043.676332.96875 1.0625.188853.193084.402374.378508.625.5s.460936.174891.71875.125c.05699-.01103.120105-.04836.15625-.09375.03615-.04539.05441-.07785.0625-.125.01618-.09431-.0074-.207448-.03125-.3125-.04766-.210103-.144018-.443589-.28125-.71875-.274463-.550323-.695406-1.181375-1.09375-1.53125-.971524-.853316-1.571925-.856708-2.625-.90625-.385928-.01816-1.318691-.06471-2.15625-.03125z"/><g fill="#fff" stroke="#000" transform="translate(62.351062 -85.961663)"><path d="m21.692346 3.6929636c0 1.7331981-1.478984 3.1382327-3.303403 3.1382327s-3.303403-1.4050346-3.303403-3.1382327 1.478984-3.13823271 3.303403-3.13823271 3.303403 1.40503461 3.303403 3.13823271z"/><path d="m11.121456 17.512199c0 2.797443-2.267775 5.065218-5.0652173 5.065218-2.7974424 0-5.06521754-2.267775-5.06521754-5.065218 0-2.797442 2.26777514-5.065217 5.06521754-5.065217 2.7974423 0 5.0652173 2.267775 5.0652173 5.065217z" stroke-width="1.125"/><path d="m19.490076 23.953835c0 1.064244-.86274 1.926985-1.926985 1.926985-1.064244 0-1.926985-.862741-1.926985-1.926985 0-1.064245.862741-1.926985 1.926985-1.926985 1.064245 0 1.926985.86274 1.926985 1.926985z" stroke-width="1.125"/></g><path d="m158.65842-39.40685c.63271-.896564.39099-2.751039-.67113-3.512391-1.35722-.972878-1.15495-1.764473.34175-1.083939 2.31496 1.052585 2.82021 4.636241.88117 5.894416-1.32395.859065-1.14473-.457865-.55179-1.298086z"/><path d="m160.69337-40.197693c-1.50472-.811817-1.31256-1.640087.30136-1.32626 2.92077.567943 2.43137 5.163562.47731 5.894416-1.68514.630272-.87652-.429507-.16504-1.470496.84731-1.239727.60338-2.441067-.61363-3.09766z"/><path d="m158.01776-32.571279c.49888-.977376.50672-2.503287-.43424-3.426186-1.19218-1.169295-.94394-1.934817.46291-1.083939 2.27457 1.375679 1.97209 4.434307.59846 5.894416-1.08141 1.149507-1.17969-.301749-.62713-1.384291z"/><path d="m165.11954-28.753862c-1.13334-1.289589-.636-2.300329.74722-1.411531 2.13942 1.374708 1.77336 6.118326.0239 5.959868-1.43214-.129717 1.09546-2.424432-.77112-4.548337z"/><path d="m167.58296-26.826773c-1.73235-.267253-1.44499-1.524694.1895-1.346801 2.95801.321939 2.95922 4.740197 1.25491 6.087001-.94832.749393-.95356-.544703-.67019-1.196882.35739-.822556 1.61928-2.186436-.77422-3.543318z"/><path d="m164.54161-19.558126c.91705-.602632 1.76602-1.519823 1.0745-2.641856-.77349-1.25504-.19661-2.587089.95606-1.046403 1.59242 2.128462-.30418 4.583664-2.22025 5.173113-1.50847.464064-.82603-.817378.18969-1.484854z"/><path d="m146.32834-13.551338c1.07135-.843927.77678-2.67901-.56585-3.582573-1.24439-.837445-.89177-1.694291.53475-1.083939 2.33801 1.000344 3.01321 4.934515.68817 5.894416-1.45881.602271-1.4649-.59155-.65707-1.227904z"/><path d="m148.73176-15.184387c-1.46296-.88487-1.22999-1.924748.30136-1.32626 2.71022 1.059218 2.43137 5.163562.47731 5.894416-1.68514.6302718-1.2615-.769836-.39313-1.242404.87639-.476941 1.07711-2.441067-.38554-3.325752z"/><path d="m146.52989-8.8563441c.78176-.235461.80812-1.7206219-.22369-2.1278149-1.20921-.477197-.99248-1.878781.46291-1.083939 2.32923 1.272086 1.58901 4.0336219.12473 4.2977709-1.5125.272845-1.34128-.791651-.36395-1.086017z"/><path d="m117.61349-8.4643489c.63271-.896564.39099-2.7510391-.67113-3.5123911-1.35722-.972878-1.15495-1.764473.34175-1.083939 2.31496 1.052585 2.82021 4.6362411.88117 5.8944161-1.32395.859065-1.14473-.457865-.55179-1.298086z"/><path d="m119.33162-9.2601059c-1.538-.7468401-1.38138-1.5825581.24447-1.3379161 2.94235.442737 2.64959 5.0550591.72851 5.8686661-1.6567.701637-.89406-.391696-.22767-1.46211.79362-1.274768.49862-2.4646-.74531-3.06864z"/><path d="m116.59913-2.2790469c.69575-.848574 1.02867-2.337745.30605-3.440006-.91553-1.396544-.50982-2.091559.68332-.960356 1.92907 1.828903.98157 4.752762-.67172 5.88651702-1.30159.892579-1.08826-.54627302-.31765-1.48615502z"/></g></svg>