<svg xmlns="http://www.w3.org/2000/svg" xmlns:svg="http://www.w3.org/2000/svg" id="svg5014" width="900" height="610" version="1.0"><defs id="defs5016"><marker id="TriangleOutM" orient="auto" refX="0" refY="0" style="overflow:visible"><path id="path5894" d="M 5.77,0 L -2.88,5 L -2.88,-5 L 5.77,0 z" style="fill-rule:evenodd;stroke:#000;stroke-width:1pt;marker-start:none" transform="scale(0.4,0.4)"/></marker></defs><metadata id="metadata5019"/><g id="layer1"><rect style="fill:red;fill-opacity:1;stroke:none;stroke-width:3;stroke-linecap:butt;stroke-linejoin:bevel;stroke-miterlimit:4;stroke-dasharray:none;stroke-dashoffset:0;stroke-opacity:1" id="rect10138" width="200" height="60" x="270" y="540"/><path style="fill:none;fill-rule:evenodd;stroke:#000;stroke-width:1.5;stroke-linecap:butt;stroke-linejoin:miter;marker-start:none;marker-mid:none;marker-end:none;stroke-miterlimit:4;stroke-dasharray:none;stroke-opacity:1" id="path8641" d="M 370.75003,225.00001 L 470.00003,225.00001 C 539.00786,225.4996 539.625,225.00001 539.625,272.46126 C 539.625,319.9225 539.00786,320.42209 569.25002,319.9225"/><path style="fill:none;fill-rule:evenodd;stroke:#000;stroke-width:2;stroke-linecap:round;stroke-linejoin:miter;stroke-miterlimit:4;stroke-dasharray:none;stroke-opacity:1" id="path9872" d="M 187,269 C 187,269 185.4,269 183,269 C 180.6,269 179,268.19999 179,267.00001 C 179,266.39999 179,232.19999 179,231 C 179,229.79998 177.32001,228.16004 176.6,227.79998 C 174.92,226.95998 171,225.40001 171,225.00004 C 171,224.59999 174.92,223.04002 176.6,222.19999 C 177.32001,221.83997 179,220.19999 179,219 C 179,217.39997 179,183.59997 179,182.99993 C 179,181.79998 180.6,181 183,181 C 185.4,181 187,181 187,181"/><path style="fill:none;fill-rule:evenodd;stroke:#000;stroke-width:1.5;stroke-linecap:butt;stroke-linejoin:miter;marker-start:none;marker-mid:none;marker-end:none;stroke-miterlimit:4;stroke-dasharray:none;stroke-opacity:1" id="path8639" d="M 370.75,315 L 470,315 C 480,315 479.625,315 479.625,239.99999 C 479.625,165 480,165 569.24999,165"/><path style="fill:none;fill-rule:evenodd;stroke:#000;stroke-width:1.5;stroke-linecap:butt;stroke-linejoin:miter;marker-start:none;marker-mid:none;marker-end:none;stroke-miterlimit:4;stroke-dasharray:none;stroke-opacity:1" id="path8637" d="M 370.75002,404.99999 L 470.00003,404.99999 C 500,405 499.625,404.99999 499.625,284.99998 C 499.625,164.99999 500,165 569.25003,164.99999"/><path style="fill:none;fill-rule:evenodd;stroke:#000;stroke-width:1.5;stroke-linecap:butt;stroke-linejoin:miter;stroke-miterlimit:4;stroke-dasharray:none;stroke-opacity:1" id="path8667" d="M 370,345 L 320,345 C 220,345 220,285 220,255 C 220,225 220,165 267.5,165"/><path style="fill:none;fill-rule:evenodd;stroke:#000;stroke-width:1.5;stroke-linecap:butt;stroke-linejoin:miter;stroke-miterlimit:4;stroke-dasharray:none;stroke-opacity:1" id="path8671" d="M 370,255.00002 L 320,255.00002 C 220,255.00002 220,185.00002 220,150.00001 C 220,115.00001 220,45.000006 267.5,45.000006"/><path style="fill:none;fill-rule:evenodd;stroke:#000;stroke-width:1.5;stroke-linecap:butt;stroke-linejoin:miter;stroke-miterlimit:4;stroke-dasharray:none;stroke-opacity:1" id="path8669" d="M 370,435 L 320,435 C 220,435 220,375 220,345 C 220,315 220,255 267.5,255"/><path style="fill:none;fill-rule:evenodd;stroke:#000;stroke-width:.75;stroke-linecap:butt;stroke-linejoin:miter;stroke-miterlimit:4;stroke-dasharray:2.24999999,2.24999999;stroke-dashoffset:0;stroke-opacity:1" id="path5545" d="M 270.37502,510 L 469.62504,510"/><path style="fill:none;fill-rule:evenodd;stroke:#000;stroke-width:.75;stroke-linecap:butt;stroke-linejoin:miter;stroke-miterlimit:4;stroke-dasharray:2.24999999,2.24999999;stroke-dashoffset:0;stroke-opacity:1" id="path5547" d="M 270.37502,480 L 469.62504,480"/><path style="fill:none;fill-rule:evenodd;stroke:#000;stroke-width:1.5;stroke-linecap:butt;stroke-linejoin:miter;stroke-miterlimit:4;stroke-dasharray:none;stroke-dashoffset:0;stroke-opacity:1" id="path5551" d="M 270.75001,360 L 469.25005,360"/><path style="fill:none;fill-rule:evenodd;stroke:#000;stroke-width:.75;stroke-linecap:butt;stroke-linejoin:miter;stroke-miterlimit:4;stroke-dasharray:2.24999999,2.24999999;stroke-dashoffset:0;stroke-opacity:1" id="path5553" d="M 270.37502,390 L 469.62504,390"/><path style="fill:none;fill-rule:evenodd;stroke:#000;stroke-width:.75;stroke-linecap:butt;stroke-linejoin:miter;stroke-miterlimit:4;stroke-dasharray:2.24999999,2.24999999;stroke-dashoffset:0;stroke-opacity:1" id="path5555" d="M 270.37502,420 L 469.62504,420"/><path style="fill:none;fill-rule:evenodd;stroke:#000;stroke-width:.75;stroke-linecap:butt;stroke-linejoin:miter;stroke-miterlimit:4;stroke-dasharray:2.24999999,2.24999999;stroke-dashoffset:0;stroke-opacity:1" id="path5557" d="M 270.37502,330 L 469.62504,330"/><path style="fill:none;fill-rule:evenodd;stroke:#000;stroke-width:1.5;stroke-linecap:butt;stroke-linejoin:miter;stroke-miterlimit:4;stroke-dasharray:none;stroke-dashoffset:0;stroke-opacity:1" id="path5559" d="M 270.75001,270 L 469.25005,270"/><path style="fill:none;fill-rule:evenodd;stroke:#000;stroke-width:.75;stroke-linecap:butt;stroke-linejoin:miter;stroke-miterlimit:4;stroke-dasharray:2.24999999,2.24999999;stroke-dashoffset:0;stroke-opacity:1" id="path5561" d="M 270.37502,300 L 469.62504,300"/><path style="fill:none;fill-rule:evenodd;stroke:#000;stroke-width:.75;stroke-linecap:butt;stroke-linejoin:miter;stroke-miterlimit:4;stroke-dasharray:2.24999999,2.24999999;stroke-dashoffset:0;stroke-opacity:1" id="path5563" d="M 270.37505,240 L 469.62507,240"/><path style="fill:none;fill-rule:evenodd;stroke:#000;stroke-width:.75;stroke-linecap:butt;stroke-linejoin:miter;stroke-miterlimit:4;stroke-dasharray:2.24999999,2.24999999;stroke-dashoffset:0;stroke-opacity:1" id="path5565" d="M 270.37505,210 L 469.62507,210"/><path style="fill:none;fill-rule:evenodd;stroke:#000;stroke-width:1.5;stroke-linecap:butt;stroke-linejoin:miter;stroke-miterlimit:4;stroke-dasharray:none;stroke-dashoffset:0;stroke-opacity:1" id="path5567" d="M 270.75003,180 L 469.25008,180"/><path style="fill:none;fill-rule:evenodd;stroke:#000;stroke-width:1.5;stroke-linecap:butt;stroke-linejoin:miter;stroke-miterlimit:4;stroke-dasharray:none;stroke-dashoffset:0;stroke-opacity:1" id="path5569" d="M 270.75,450 L 469.25006,450"/><path style="fill:none;fill-rule:evenodd;stroke:#000;stroke-width:.75;stroke-linecap:butt;stroke-linejoin:miter;stroke-miterlimit:4;stroke-dasharray:2.24999999,2.24999999;stroke-dashoffset:0;stroke-opacity:1" id="path5571" d="M 270.37504,120 L 469.62507,120"/><path style="fill:none;fill-rule:evenodd;stroke:#000;stroke-width:.75;stroke-linecap:butt;stroke-linejoin:miter;stroke-miterlimit:4;stroke-dasharray:2.24999999,2.24999999;stroke-dashoffset:0;stroke-opacity:1" id="path5573" d="M 270.37504,89.999996 L 469.62507,89.999996"/><path style="fill:none;fill-rule:evenodd;stroke:#000;stroke-width:1.5;stroke-linecap:butt;stroke-linejoin:miter;stroke-miterlimit:4;stroke-dasharray:none;stroke-dashoffset:0;stroke-opacity:1" id="path5575" d="M 270.75003,59.999996 L 469.25008,59.999996"/><path style="fill:none;fill-rule:evenodd;stroke:#000;stroke-width:.75;stroke-linecap:butt;stroke-linejoin:miter;stroke-miterlimit:4;stroke-dasharray:2.24999999,2.24999999;stroke-dashoffset:0;stroke-opacity:1" id="path5577" d="M 270.37505,150 L 469.62507,150"/><text xml:space="preserve" style="font-size:22;font-style:normal;font-variant:normal;font-weight:700;font-stretch:normal;text-align:center;line-height:100%;writing-mode:lr-tb;text-anchor:middle;fill:#000;fill-opacity:1;stroke:none;stroke-width:1.5;stroke-linecap:square;stroke-linejoin:bevel;stroke-miterlimit:4;stroke-dasharray:none;stroke-dashoffset:0;stroke-opacity:1;font-family:Consolas;-inkscape-font-specification:Consolas Bold" id="text5579" x="370.008" y="470"><tspan id="tspan9962" x="370.008" y="470">n = 0</tspan></text><text xml:space="preserve" style="font-size:22;font-style:normal;font-variant:normal;font-weight:700;font-stretch:normal;text-align:center;line-height:100%;writing-mode:lr-tb;text-anchor:middle;fill:#000;fill-opacity:1;stroke:none;stroke-width:1.5;stroke-linecap:square;stroke-linejoin:bevel;stroke-miterlimit:4;stroke-dasharray:none;stroke-dashoffset:0;stroke-opacity:1;font-family:Consolas;-inkscape-font-specification:Consolas Bold" id="text5583" x="370.008" y="380"><tspan id="tspan9964" x="370.008" y="380">n = 1</tspan></text><text xml:space="preserve" style="font-size:22;font-style:normal;font-variant:normal;font-weight:700;font-stretch:normal;text-align:center;line-height:100%;writing-mode:lr-tb;text-anchor:middle;fill:#000;fill-opacity:1;stroke:none;stroke-width:1.5;stroke-linecap:square;stroke-linejoin:bevel;stroke-miterlimit:4;stroke-dasharray:none;stroke-dashoffset:0;stroke-opacity:1;font-family:Consolas;-inkscape-font-specification:Consolas Bold" id="text5591" x="370.008" y="290"><tspan id="tspan9968" x="370.008" y="290">n = 2</tspan></text><text xml:space="preserve" style="font-size:22;font-style:normal;font-variant:normal;font-weight:700;font-stretch:normal;text-align:center;line-height:100%;writing-mode:lr-tb;text-anchor:middle;fill:#000;fill-opacity:1;stroke:none;stroke-width:1.5;stroke-linecap:square;stroke-linejoin:bevel;stroke-miterlimit:4;stroke-dasharray:none;stroke-dashoffset:0;stroke-opacity:1;font-family:Consolas;-inkscape-font-specification:Consolas Bold" id="text5603" x="370.008" y="200"><tspan id="tspan9974" x="370.008" y="200">n = 3</tspan></text><text xml:space="preserve" style="font-size:22;font-style:normal;font-variant:normal;font-weight:700;font-stretch:normal;text-align:center;line-height:100%;writing-mode:lr-tb;text-anchor:middle;fill:#000;fill-opacity:1;stroke:none;stroke-width:1.5;stroke-linecap:square;stroke-linejoin:bevel;stroke-miterlimit:4;stroke-dasharray:none;stroke-dashoffset:0;stroke-opacity:1;font-family:Consolas;-inkscape-font-specification:Consolas Bold" id="text5617" x="369.926" y="80"><tspan id="tspan9980" x="369.926" y="80">i = 3</tspan></text><text xml:space="preserve" style="font-size:18px;font-style:normal;font-variant:normal;font-weight:700;font-stretch:normal;text-align:start;line-height:100%;writing-mode:lr-tb;text-anchor:start;fill:#000;fill-opacity:1;stroke:none;stroke-width:1.5;stroke-linecap:square;stroke-linejoin:bevel;stroke-miterlimit:4;stroke-dasharray:none;stroke-dashoffset:0;stroke-opacity:1;font-family:Consolas;-inkscape-font-specification:Consolas Bold" id="text5625" x="570" y="60.898"><tspan id="tspan5705" x="570" y="60.898">int fact( int n )</tspan><tspan id="tspan5707" x="570" y="78.898">{</tspan><tspan id="tspan5709" x="570" y="96.898"> if( 0 == n ) {</tspan><tspan id="tspan5711" x="570" y="114.898"> return 1;</tspan><tspan id="tspan5713" x="570" y="132.898"> }</tspan><tspan id="tspan5715" x="570" y="150.898"> else {</tspan><tspan id="tspan5717" x="570" y="168.898"> return n * fact( n - 1 );</tspan><tspan id="tspan5719" x="570" y="186.898"> }</tspan><tspan id="tspan5721" x="570" y="204.898">}</tspan><tspan id="tspan5725" x="570" y="240.898">main()</tspan><tspan id="tspan5727" x="570" y="258.898">{</tspan><tspan id="tspan5729" x="570" y="276.898"> int i;</tspan><tspan id="tspan5733" x="570" y="312.898"> for( i = 0 ; i &lt; 10 ; i++ ) {</tspan><tspan id="tspan5735" x="570" y="330.898"> int f = fact( i );</tspan><tspan id="tspan5737" x="570" y="348.898"> printf( &quot;%d! = %d\n&quot;, i, f );</tspan><tspan id="tspan5739" x="570" y="366.898"> }</tspan><tspan id="tspan5741" x="570" y="384.898">}</tspan></text><path style="fill:none;fill-rule:evenodd;stroke:#000;stroke-width:1.5;stroke-linecap:butt;stroke-linejoin:miter;marker-start:none;marker-mid:none;marker-end:none;stroke-miterlimit:4;stroke-dasharray:none;stroke-opacity:1" id="path5743" d="M 370.75002,495 L 470.00003,495 C 519.62504,495 519.62504,495 519.62504,329.99998 C 519.62504,164.99999 519.62504,164.99999 569.25003,164.99999"/><path style="fill:#000;fill-opacity:1;stroke:none;stroke-width:1.5;stroke-linecap:square;stroke-linejoin:bevel;stroke-miterlimit:4;stroke-dasharray:none;stroke-dashoffset:0;stroke-opacity:1;font-size:88" id="path8623" d="M 50,320 A 10,10 0 1 1 30,320 A 10,10 0 1 1 50,320 z" transform="matrix(0.25,0,0,0.25,360,415)"/><path style="fill:#000;fill-opacity:1;fill-rule:evenodd;stroke:none;stroke-width:1px;stroke-linecap:butt;stroke-linejoin:miter;stroke-opacity:1" id="path8627" d="M 567.5,162.5 L 572.5,165 L 567.5,167.5 L 567.5,162.5 z"/><path style="fill:#000;fill-opacity:1;stroke:none;stroke-width:1.5;stroke-linecap:square;stroke-linejoin:bevel;stroke-miterlimit:4;stroke-dasharray:none;stroke-dashoffset:0;stroke-opacity:1;font-size:88" id="path8629" d="M 50,320 A 10,10 0 1 1 30,320 A 10,10 0 1 1 50,320 z" transform="matrix(0.25,0,0,0.25,360.00003,325)"/><path style="fill:#000;fill-opacity:1;stroke:none;stroke-width:1.5;stroke-linecap:square;stroke-linejoin:bevel;stroke-miterlimit:4;stroke-dasharray:none;stroke-dashoffset:0;stroke-opacity:1;font-size:88" id="path8631" d="M 50,320 A 10,10 0 1 1 30,320 A 10,10 0 1 1 50,320 z" transform="matrix(0.25,0,0,0.25,360.00003,235)"/><path style="fill:#000;fill-opacity:1;stroke:none;stroke-width:1.5;stroke-linecap:square;stroke-linejoin:bevel;stroke-miterlimit:4;stroke-dasharray:none;stroke-dashoffset:0;stroke-opacity:1;font-size:88" id="path8633" d="M 50,320 A 10,10 0 1 1 30,320 A 10,10 0 1 1 50,320 z" transform="matrix(0.25,0,0,0.25,360.00003,145)"/><path style="fill:#000;fill-opacity:1;stroke:none;stroke-width:1.5;stroke-linecap:square;stroke-linejoin:bevel;stroke-miterlimit:4;stroke-dasharray:none;stroke-dashoffset:0;stroke-opacity:1;font-size:88" id="path8635" d="M 50,320 A 10,10 0 1 1 30,320 A 10,10 0 1 1 50,320 z" transform="matrix(0.25,0,0,0.25,360.00003,54.999996)"/><path style="fill:#000;fill-opacity:1;fill-rule:evenodd;stroke:none;stroke-width:1px;stroke-linecap:butt;stroke-linejoin:miter;stroke-opacity:1" id="path8643" d="M 567.5,317.5 L 572.5,320 L 567.5,322.5 L 567.5,317.5 z"/><path style="fill:none;fill-rule:evenodd;stroke:#000;stroke-width:1.5;stroke-linecap:butt;stroke-linejoin:miter;stroke-miterlimit:4;stroke-dasharray:none;stroke-opacity:1" id="path8645" d="M 370,525 L 320,525 C 220,525 220,465 220,435 C 220,405 220,345 267.5,345"/><path style="fill:#000;fill-opacity:1;stroke:none;stroke-width:1.5;stroke-linecap:square;stroke-linejoin:bevel;stroke-miterlimit:4;stroke-dasharray:none;stroke-dashoffset:0;stroke-opacity:1" id="path8647" d="M 50,320 A 10,10 0 1 1 30,320 A 10,10 0 1 1 50,320 z" transform="matrix(0.25,0,0,0.25,360,445)"/><path style="fill:#000;fill-opacity:1;fill-rule:evenodd;stroke:none;stroke-width:1px;stroke-linecap:butt;stroke-linejoin:miter;stroke-opacity:1" id="path8649" d="M 265,342.5 L 270,345 L 265,347.5 L 265,342.5 z"/><path style="fill:#000;fill-opacity:1;stroke:none;stroke-width:1.5;stroke-linecap:square;stroke-linejoin:bevel;stroke-miterlimit:4;stroke-dasharray:none;stroke-dashoffset:0;stroke-opacity:1;font-size:88" id="path8651" d="M 50,320 A 10,10 0 1 1 30,320 A 10,10 0 1 1 50,320 z" transform="matrix(0.25,0,0,0.25,360,355)"/><path style="fill:#000;fill-opacity:1;stroke:none;stroke-width:1.5;stroke-linecap:square;stroke-linejoin:bevel;stroke-miterlimit:4;stroke-dasharray:none;stroke-dashoffset:0;stroke-opacity:1;font-size:88" id="path8653" d="M 50,320 A 10,10 0 1 1 30,320 A 10,10 0 1 1 50,320 z" transform="matrix(0.25,0,0,0.25,360,265.43408)"/><path style="fill:#000;fill-opacity:1;stroke:none;stroke-width:1.5;stroke-linecap:square;stroke-linejoin:bevel;stroke-miterlimit:4;stroke-dasharray:none;stroke-dashoffset:0;stroke-opacity:1;font-size:88" id="path8655" d="M 50,320 A 10,10 0 1 1 30,320 A 10,10 0 1 1 50,320 z" transform="matrix(0.25,0,0,0.25,360,175)"/><path style="fill:#000;fill-opacity:1;stroke:none;stroke-width:1.5;stroke-linecap:square;stroke-linejoin:bevel;stroke-miterlimit:4;stroke-dasharray:none;stroke-dashoffset:0;stroke-opacity:1;font-size:88" id="path8657" d="M 50,320 A 10,10 0 1 1 30,320 A 10,10 0 1 1 50,320 z" transform="matrix(0.25,0,0,0.25,360,84.999996)"/><path style="fill:#000;fill-opacity:1;fill-rule:evenodd;stroke:none;stroke-width:1px;stroke-linecap:butt;stroke-linejoin:miter;stroke-opacity:1" id="path8661" d="M 265,252.5 L 270,255 L 265,257.5 L 265,252.5 z"/><path style="fill:#000;fill-opacity:1;fill-rule:evenodd;stroke:none;stroke-width:1px;stroke-linecap:butt;stroke-linejoin:miter;stroke-opacity:1" id="path8663" d="M 265,162.5 L 270,165 L 265,167.5 L 265,162.5 z"/><path style="fill:#000;fill-opacity:1;fill-rule:evenodd;stroke:none;stroke-width:1px;stroke-linecap:butt;stroke-linejoin:miter;stroke-opacity:1" id="path8665" d="M 265,42.499996 L 270,44.999996 L 265,47.499996 L 265,42.499996 z"/><path style="fill:none;fill-rule:evenodd;stroke:#000;stroke-width:1.5;stroke-linecap:butt;stroke-linejoin:miter;marker-start:none;marker-mid:none;marker-end:none;stroke-miterlimit:4;stroke-dasharray:none;stroke-opacity:1" id="path8675" d="M 370.75003,135 L 470.00004,135 C 500.00001,135.00001 499.62501,135 499.62501,14.999986"/><path style="fill:#000;fill-opacity:1;fill-rule:evenodd;stroke:none;stroke-width:1px;stroke-linecap:butt;stroke-linejoin:miter;stroke-opacity:1" id="path8677" d="M 497.25,14.999996 L 499.75,9.999996 L 502.25,14.999996 L 497.25,14.999996 z"/><path style="fill:none;fill-rule:evenodd;stroke:#000;stroke-width:1.5;stroke-linecap:butt;stroke-linejoin:miter;stroke-miterlimit:4;stroke-dasharray:none;stroke-opacity:1" id="path8679" d="M 370,165 L 320,165 C 220,165 220,94.999996 220,59.999986 C 220,14.999996 220,14.999996 220,14.999996"/><path style="fill:#000;fill-opacity:1;fill-rule:evenodd;stroke:none;stroke-width:1px;stroke-linecap:butt;stroke-linejoin:miter;stroke-opacity:1" id="path8681" d="M 217.25,14.999996 L 219.75,9.999996 L 222.25,14.999996 L 217.25,14.999996 z"/><path style="fill:none;fill-rule:evenodd;stroke:#000;stroke-width:1.49999988;stroke-linecap:butt;stroke-linejoin:miter;stroke-miterlimit:4;stroke-dasharray:none;stroke-opacity:1" id="path8683" d="M 270,609.24984 L 270,0.74986633"/><path style="fill:none;fill-rule:evenodd;stroke:#000;stroke-width:1.5;stroke-linecap:butt;stroke-linejoin:miter;stroke-miterlimit:4;stroke-dasharray:none;stroke-dashoffset:0;stroke-opacity:1" id="path8685" d="M 270.75003,539.32476 L 469.25008,539.32476"/><path style="fill:none;fill-rule:evenodd;stroke:#000;stroke-width:1.5;stroke-linecap:butt;stroke-linejoin:miter;stroke-miterlimit:4;stroke-dasharray:none;stroke-opacity:1" id="path8687" d="M 470,609.25 L 470,0.750006"/><text xml:space="preserve" style="font-size:22;font-style:normal;font-variant:normal;font-weight:700;font-stretch:normal;text-align:start;line-height:100%;writing-mode:lr-tb;text-anchor:start;fill:#000;fill-opacity:1;stroke:none;stroke-width:1.5;stroke-linecap:butt;stroke-linejoin:bevel;stroke-miterlimit:4;stroke-dasharray:none;stroke-dashoffset:0;stroke-opacity:1;font-family:Consolas;-inkscape-font-specification:Consolas Bold" id="text8793" x="568.383" y="440.744"><tspan id="tspan8795" x="568.383" y="440.744">FP</tspan></text><text xml:space="preserve" style="font-size:18px;font-style:normal;font-variant:normal;font-weight:700;font-stretch:normal;text-align:start;line-height:100%;writing-mode:lr-tb;text-anchor:start;fill:#000;fill-opacity:1;stroke:none;stroke-width:1.5;stroke-linecap:butt;stroke-linejoin:bevel;stroke-miterlimit:4;stroke-dasharray:none;stroke-dashoffset:0;stroke-opacity:1;font-family:Consolas;-inkscape-font-specification:Consolas Bold" id="text8797" x="832.813" y="116.614"><tspan id="tspan8801" x="832.813" y="116.614">PC</tspan></text><text xml:space="preserve" style="font-size:22;font-style:normal;font-variant:normal;font-weight:700;font-stretch:normal;text-align:start;line-height:100%;writing-mode:lr-tb;text-anchor:start;fill:#000;fill-opacity:1;stroke:none;stroke-width:1.5;stroke-linecap:butt;stroke-linejoin:bevel;stroke-miterlimit:4;stroke-dasharray:none;stroke-dashoffset:0;stroke-opacity:1;font-family:Consolas;-inkscape-font-specification:Consolas Bold" id="text8803" x="569.139" y="530.739"><tspan id="tspan8807" x="569.139" y="530.739">SP</tspan></text><path style="fill:none;fill-rule:evenodd;stroke:#000;stroke-width:1.5;stroke-linecap:butt;stroke-linejoin:miter;marker-end:url(#TriangleOutM);stroke-miterlimit:4;stroke-dasharray:none;stroke-opacity:1" id="path8809" d="M 564.25006,435 L 473.837,435"/><path style="fill:none;fill-rule:evenodd;stroke:#000;stroke-width:1.5;stroke-linecap:butt;stroke-linejoin:miter;marker-end:url(#TriangleOutM);stroke-miterlimit:4;stroke-dasharray:none;stroke-opacity:1" id="path9861" d="M 564.25006,525 L 473.837,525"/><path style="fill:none;fill-rule:evenodd;stroke:#000;stroke-width:1.5;stroke-linecap:butt;stroke-linejoin:miter;marker-end:url(#TriangleOutM);stroke-miterlimit:4;stroke-dasharray:none;stroke-opacity:1" id="path9863" d="M 828.25006,110.86997 L 737.837,110.86997"/><path style="fill:none;fill-rule:evenodd;stroke:#000;stroke-width:2;stroke-linecap:round;stroke-linejoin:miter;stroke-miterlimit:4;stroke-dasharray:none;stroke-opacity:1" id="path12461" d="M 187,539 C 187,539 185.4,539 183,539 C 180.6,539 179,538.19999 179,537.00001 C 179,536.39999 179,502.19999 179,501 C 179,499.79998 177.32001,498.16004 176.6,497.79998 C 174.92,496.95998 171,495.40001 171,495.00004 C 171,494.59999 174.92,493.04002 176.6,492.19999 C 177.32001,491.83997 179,490.19999 179,489 C 179,487.39997 179,453.59997 179,452.99993 C 179,451.79998 180.6,451 183,451 C 185.4,451 187,451 187,451"/><path style="fill:none;fill-rule:evenodd;stroke:#000;stroke-width:2;stroke-linecap:round;stroke-linejoin:miter;stroke-miterlimit:4;stroke-dasharray:none;stroke-opacity:1" id="path9866" d="M 187,449 C 187,449 185.4,449 183,449 C 180.6,449 179,448.19999 179,447.00001 C 179,446.39999 179,412.19999 179,411 C 179,409.79998 177.32001,408.16004 176.6,407.79998 C 174.92,406.95998 171,405.40001 171,405.00004 C 171,404.59999 174.92,403.04002 176.6,402.19999 C 177.32001,401.83997 179,400.19999 179,399 C 179,397.39997 179,363.59997 179,362.99993 C 179,361.79998 180.6,361 183,361 C 185.4,361 187,361 187,361"/><path style="fill:none;fill-rule:evenodd;stroke:#000;stroke-width:2;stroke-linecap:round;stroke-linejoin:miter;stroke-miterlimit:4;stroke-dasharray:none;stroke-opacity:1" id="path9868" d="M 187,359 C 187,359 185.4,359 183,359 C 180.6,359 179,358.19999 179,357.00001 C 179,356.39999 179,322.19999 179,321 C 179,319.79998 177.32001,318.16004 176.6,317.79998 C 174.92,316.95998 171,315.40001 171,315.00004 C 171,314.59999 174.92,313.04002 176.6,312.19999 C 177.32001,311.83997 179,310.19999 179,309 C 179,307.39997 179,273.59997 179,272.99993 C 179,271.79998 180.6,271 183,271 C 185.4,271 187,271 187,271"/><path style="fill:none;fill-rule:evenodd;stroke:#000;stroke-width:2;stroke-linecap:round;stroke-linejoin:miter;stroke-miterlimit:4;stroke-dasharray:none;stroke-opacity:1" id="path9874" d="M 187,179 C 187,179 185.4,179 183,179 C 180.6,179 179,177.92726 179,176.31819 C 179,175.51362 179,129.65453 179,128.04545 C 179,126.43634 177.32001,124.23733 176.6,123.75452 C 174.92,122.62815 171,120.53638 171,120.00005 C 171,119.46362 174.92,117.37184 176.6,116.24544 C 177.32001,115.76269 179,113.56362 179,111.95454 C 179,109.80905 179,64.486316 179,63.681716 C 179,62.072696 180.6,60.999996 183,60.999996 C 185.4,60.999996 187,60.999996 187,60.999996"/><text xml:space="preserve" style="font-size:22;font-style:normal;font-variant:normal;font-weight:700;font-stretch:normal;text-align:start;line-height:100%;writing-mode:lr-tb;text-anchor:start;fill:#000;fill-opacity:1;stroke:none;stroke-width:1.5;stroke-linecap:butt;stroke-linejoin:bevel;stroke-miterlimit:4;stroke-dasharray:none;stroke-dashoffset:0;stroke-opacity:1;font-family:Consolas;-inkscape-font-specification:Consolas Bold" id="text9876" x="70" y="499.184"><tspan id="tspan9878" x="70" y="499.184">fact (0)</tspan></text><text xml:space="preserve" style="font-size:22;font-style:normal;font-variant:normal;font-weight:700;font-stretch:normal;text-align:start;line-height:100%;writing-mode:lr-tb;text-anchor:start;fill:#000;fill-opacity:1;stroke:none;stroke-width:1.5;stroke-linecap:butt;stroke-linejoin:bevel;stroke-miterlimit:4;stroke-dasharray:none;stroke-dashoffset:0;stroke-opacity:1;font-family:Consolas;-inkscape-font-specification:Consolas Bold" id="text9880" x="70" y="409.184"><tspan id="tspan9902" x="70" y="409.184">fact (1)</tspan></text><text xml:space="preserve" style="font-size:22;font-style:normal;font-variant:normal;font-weight:700;font-stretch:normal;text-align:start;line-height:100%;writing-mode:lr-tb;text-anchor:start;fill:#000;fill-opacity:1;stroke:none;stroke-width:1.5;stroke-linecap:butt;stroke-linejoin:bevel;stroke-miterlimit:4;stroke-dasharray:none;stroke-dashoffset:0;stroke-opacity:1;font-family:Consolas;-inkscape-font-specification:Consolas Bold" id="text9884" x="70" y="319.184"><tspan id="tspan9900" x="70" y="319.184">fact (2)</tspan></text><text xml:space="preserve" style="font-size:22;font-style:normal;font-variant:normal;font-weight:700;font-stretch:normal;text-align:start;line-height:100%;writing-mode:lr-tb;text-anchor:start;fill:#000;fill-opacity:1;stroke:none;stroke-width:1.5;stroke-linecap:butt;stroke-linejoin:bevel;stroke-miterlimit:4;stroke-dasharray:none;stroke-dashoffset:0;stroke-opacity:1;font-family:Consolas;-inkscape-font-specification:Consolas Bold" id="text9888" x="70" y="229.184"><tspan id="tspan9898" x="70" y="229.184">fact (3)</tspan></text><text xml:space="preserve" style="font-size:22;font-style:normal;font-variant:normal;font-weight:700;font-stretch:normal;text-align:start;line-height:100%;writing-mode:lr-tb;text-anchor:start;fill:#000;fill-opacity:1;stroke:none;stroke-width:1.5;stroke-linecap:butt;stroke-linejoin:bevel;stroke-miterlimit:4;stroke-dasharray:none;stroke-dashoffset:0;stroke-opacity:1;font-family:Consolas;-inkscape-font-specification:Consolas Bold" id="text9892" x="69.539" y="124.184"><tspan id="tspan9896" x="69.539" y="124.184">main ()</tspan></text><path style="fill:none;fill-rule:evenodd;stroke:#000;stroke-width:2;stroke-linecap:round;stroke-linejoin:miter;stroke-miterlimit:4;stroke-dasharray:none;stroke-opacity:1" id="path9904" d="M 179,609 C 179,608.40867 179,591.45796 179,590.27536 C 179,589.09273 177.32001,587.47656 176.6,587.12172 C 174.92,586.29389 171,584.75653 171,584.36236 C 171,583.96811 174.92,582.43074 176.6,581.60289 C 177.32001,581.24809 179,579.63187 179,578.44928 C 179,576.87243 179,543.56229 179,542.97095 C 179,541.78839 180.6,541 183,541 C 185.4,541 187,541 187,541"/><text xml:space="preserve" style="font-size:22px;font-style:normal;font-variant:normal;font-weight:300;font-stretch:normal;text-align:start;line-height:100%;writing-mode:lr-tb;text-anchor:start;fill:#000;fill-opacity:1;stroke:none;stroke-width:1.5;stroke-linecap:butt;stroke-linejoin:bevel;stroke-miterlimit:4;stroke-dasharray:none;stroke-dashoffset:0;stroke-opacity:1;font-family:Bookman Old Style;-inkscape-font-specification:Bookman Old Style Light" id="text9906" x="25.851" y="591.332"><tspan id="tspan9910" x="25.851" y="591.332">#-1</tspan></text><text xml:space="preserve" style="font-size:22px;font-style:normal;font-variant:normal;font-weight:300;font-stretch:normal;text-align:start;line-height:100%;writing-mode:lr-tb;text-anchor:start;fill:#000;fill-opacity:1;stroke:none;stroke-width:1.5;stroke-linecap:butt;stroke-linejoin:bevel;stroke-miterlimit:4;stroke-dasharray:none;stroke-dashoffset:0;stroke-opacity:1;font-family:Bookman Old Style;-inkscape-font-specification:Bookman Old Style Light" id="text9912" x="29.369" y="501.13"><tspan id="tspan9932" x="29.369" y="501.13">#0</tspan></text><text xml:space="preserve" style="font-size:22px;font-style:normal;font-variant:normal;font-weight:300;font-stretch:normal;text-align:start;line-height:100%;writing-mode:lr-tb;text-anchor:start;fill:#000;fill-opacity:1;stroke:none;stroke-width:1.5;stroke-linecap:butt;stroke-linejoin:bevel;stroke-miterlimit:4;stroke-dasharray:none;stroke-dashoffset:0;stroke-opacity:1;font-family:Bookman Old Style;-inkscape-font-specification:Bookman Old Style Light" id="text9916" x="30.255" y="411.126"><tspan id="tspan9934" x="30.255" y="411.126">#1</tspan></text><text xml:space="preserve" style="font-size:22px;font-style:normal;font-variant:normal;font-weight:300;font-stretch:normal;text-align:start;line-height:100%;writing-mode:lr-tb;text-anchor:start;fill:#000;fill-opacity:1;stroke:none;stroke-width:1.5;stroke-linecap:butt;stroke-linejoin:bevel;stroke-miterlimit:4;stroke-dasharray:none;stroke-dashoffset:0;stroke-opacity:1;font-family:Bookman Old Style;-inkscape-font-specification:Bookman Old Style Light" id="text9920" x="29.622" y="321.016"><tspan id="tspan9936" x="29.622" y="321.016">#2</tspan></text><text xml:space="preserve" style="font-size:22px;font-style:normal;font-variant:normal;font-weight:300;font-stretch:normal;text-align:start;line-height:100%;writing-mode:lr-tb;text-anchor:start;fill:#000;fill-opacity:1;stroke:none;stroke-width:1.5;stroke-linecap:butt;stroke-linejoin:bevel;stroke-miterlimit:4;stroke-dasharray:none;stroke-dashoffset:0;stroke-opacity:1;font-family:Bookman Old Style;-inkscape-font-specification:Bookman Old Style Light" id="text9924" x="29.557" y="231.13"><tspan id="tspan9938" x="29.557" y="231.13">#3</tspan></text><text xml:space="preserve" style="font-size:22px;font-style:normal;font-variant:normal;font-weight:300;font-stretch:normal;text-align:start;line-height:100%;writing-mode:lr-tb;text-anchor:start;fill:#000;fill-opacity:1;stroke:none;stroke-width:1.5;stroke-linecap:butt;stroke-linejoin:bevel;stroke-miterlimit:4;stroke-dasharray:none;stroke-dashoffset:0;stroke-opacity:1;font-family:Bookman Old Style;-inkscape-font-specification:Bookman Old Style Light" id="text9928" x="29.332" y="126.126"><tspan id="tspan9940" x="29.332" y="126.126">#4</tspan></text><text xml:space="preserve" style="font-size:22px;font-style:normal;font-variant:normal;font-weight:300;font-stretch:normal;text-align:center;line-height:100%;writing-mode:lr-tb;text-anchor:middle;fill:#000;fill-opacity:1;stroke:none;stroke-width:1.5;stroke-linecap:butt;stroke-linejoin:bevel;stroke-miterlimit:4;stroke-dasharray:none;stroke-dashoffset:0;stroke-opacity:1;font-family:Bookman Old Style;-inkscape-font-specification:Bookman Old Style Light" id="text9942" x="42.389" y="41.789"><tspan id="tspan9946" x="42.389" y="41.789">Frame</tspan><tspan id="tspan9948" x="42.389" y="63.789">Number</tspan></text><text xml:space="preserve" style="font-size:22px;font-style:normal;font-variant:normal;font-weight:300;font-stretch:normal;text-align:center;line-height:100%;writing-mode:lr-tb;text-anchor:middle;fill:#000;fill-opacity:1;stroke:none;stroke-width:1.5;stroke-linecap:butt;stroke-linejoin:bevel;stroke-miterlimit:4;stroke-dasharray:none;stroke-dashoffset:0;stroke-opacity:1;font-family:Bookman Old Style;-inkscape-font-specification:Bookman Old Style Light" id="text9950" x="741.152" y="583.048"><tspan id="tspan9956" x="741.152" y="583.048">Direction of</tspan><tspan id="tspan9958" x="741.152" y="605.048">stack growth</tspan></text><path style="fill:none;fill-rule:evenodd;stroke:#000;stroke-width:3.00000095;stroke-linecap:butt;stroke-linejoin:miter;marker-end:url(#TriangleOutM);stroke-miterlimit:4;stroke-dasharray:none;stroke-opacity:1" id="path9960" d="M 741.35889,405.72248 L 741.35889,543.326"/><text xml:space="preserve" style="font-size:22;font-style:normal;font-variant:normal;font-weight:700;font-stretch:normal;text-align:center;line-height:100%;writing-mode:lr-tb;text-anchor:middle;fill:#000;fill-opacity:1;stroke:none;stroke-width:1.5;stroke-linecap:square;stroke-linejoin:bevel;stroke-miterlimit:4;stroke-dasharray:none;stroke-dashoffset:0;stroke-opacity:1;font-family:Consolas;-inkscape-font-specification:Consolas Bold" id="text9990" x="369.926" y="109.859"><tspan id="tspan9998" x="369.926" y="109.859">f = ?</tspan></text><path style="fill:none;fill-rule:evenodd;stroke:#000;stroke-width:.75;stroke-linecap:butt;stroke-linejoin:miter;stroke-miterlimit:4;stroke-dasharray:2.24999999,2.24999999;stroke-dashoffset:0;stroke-opacity:1" id="path10136" d="M 270.37505,600 L 469.62506,600"/><text xml:space="preserve" style="font-size:22px;font-style:normal;font-variant:normal;font-weight:300;font-stretch:normal;text-align:center;line-height:100%;writing-mode:lr-tb;text-anchor:middle;fill:#000;fill-opacity:1;stroke:none;stroke-width:1.5;stroke-linecap:butt;stroke-linejoin:bevel;stroke-miterlimit:4;stroke-dasharray:none;stroke-dashoffset:0;stroke-opacity:1;font-family:Bookman Old Style;-inkscape-font-specification:Bookman Old Style Light" id="text10140" x="370.209" y="559.483"><tspan id="tspan10144" x="370.209" y="559.483">Red Zone</tspan></text><g style="fill-rule:evenodd" id="g4562" transform="matrix(4.0333334e-2,0,0,5.5000001e-2,-172.52993,80.374991)"><path id="path4553" d="M 10727.273,8909.091 L 12545.455,9090.9091 L 14363.636,8909.091 L 16181.818,9090.9091 L 16181.818,9272.7273 L 14363.636,9090.9091 L 12545.455,9272.7273 L 10727.273,9090.9091 L 10727.273,8909.091 z" style="fill:#fff;fill-rule:evenodd;stroke:none;stroke-width:1px;stroke-linecap:butt;stroke-linejoin:miter;stroke-opacity:1"/><path id="path4549" d="M 10734.091,9097.7272 L 12547.728,9265.9091 L 14361.364,9097.7272 L 16175,9265.9091" style="fill:none;fill-rule:evenodd;stroke:#000;stroke-width:15.92384243;stroke-linecap:butt;stroke-linejoin:miter;stroke-opacity:1"/><path id="path4555" d="M 10734.091,8915.909 L 12547.728,9084.0909 L 14361.364,8915.909 L 16175,9084.0909" style="fill:none;fill-rule:evenodd;stroke:#000;stroke-width:15.92384243;stroke-linecap:butt;stroke-linejoin:miter;stroke-opacity:1"/></g></g></svg>